<svg width="62" height="62" viewBox="0 0 62 62" fill="none" xmlns="http://www.w3.org/2000/svg">
<path d="M42.9018 0C39.5766 0 36.4485 1.29764 34.0988 3.65219L24.5648 13.1857C22.2103 15.5402 20.9131 18.6639 20.9131 21.9892C20.9131 24.7375 21.8165 27.3328 23.4503 29.4854L8.57271 44.4012C8.54413 44.4249 8.51991 44.4492 8.49618 44.4777L8.41916 44.5548C8.32761 44.6318 8.25108 44.7228 8.1886 44.8241C4.58921 48.6874 4.65653 54.747 8.41916 58.5096C12.1963 62.2863 18.2796 62.3391 22.143 58.7014C22.172 58.6777 22.1958 58.6535 22.22 58.6249C22.2248 58.62 22.2534 58.6297 22.2582 58.6249C22.3018 58.5769 22.3401 58.5236 22.3735 58.4708L22.4505 58.4326C22.5421 58.341 22.6186 58.2403 22.6811 58.125L37.7892 43.0556C37.8614 42.998 37.9239 42.9355 37.9815 42.8633L38.0198 42.8251C38.0489 42.8008 38.0726 42.7766 38.0968 42.748C40.3264 40.5998 43.8536 40.6623 46.0541 42.8633C48.2261 45.0353 48.2794 48.4709 46.2082 50.7058C46.1505 50.7538 46.1026 50.8017 46.0541 50.8594C45.9824 50.917 45.92 50.9795 45.8623 51.0517L37.674 59.2013C37.1983 59.6915 37.2031 60.4747 37.6928 60.9504C38.183 61.426 38.9663 61.4217 39.4424 60.9315L47.5538 52.8201C47.64 52.7528 47.717 52.6758 47.7843 52.5891C47.8129 52.5653 47.8371 52.5411 47.8613 52.5126C47.8754 52.498 47.8851 52.4883 47.8996 52.4738C47.9141 52.4501 47.9282 52.421 47.9379 52.3973C50.9269 49.2207 50.893 44.1992 47.7843 41.0949C46.2033 39.5139 44.1036 38.7117 42.0178 38.7117C40.0043 38.7117 38.0053 39.4611 36.4436 40.9413C36.386 40.9893 36.3381 41.0372 36.2901 41.0949C36.1986 41.1719 36.1215 41.2629 36.0591 41.3642L20.8744 56.5488C20.8361 56.5731 20.7978 56.5968 20.7591 56.6259L20.6438 56.7411C20.5528 56.8182 20.4757 56.9092 20.4133 57.01C17.4915 59.6915 12.9796 59.6096 10.1489 56.7794C7.31866 53.9492 7.2368 49.4368 9.9183 46.5155C9.94252 46.5058 9.9711 46.4913 9.99532 46.4768C10.0098 46.4627 10.0195 46.453 10.0336 46.4385C10.0772 46.3905 10.1154 46.3377 10.1489 46.2849L10.2259 46.2079C10.2549 46.1692 10.2787 46.1309 10.3029 46.0926L25.1417 31.2921C27.4193 33.3153 30.2931 34.4444 33.3683 34.4444C36.6936 34.4444 39.8168 33.1472 42.1714 30.7922L51.7053 21.2587C56.5588 16.4005 56.5636 8.50998 51.7053 3.65219C49.3508 1.29764 46.2275 0 42.9018 0ZM33.2143 14.7618C37.2894 14.7618 40.5957 18.0682 40.5957 22.1427C40.5957 26.2178 37.2894 29.5236 33.2143 29.5236C29.1398 29.5236 25.8334 26.2178 25.8334 22.1427C25.8334 18.0682 29.1398 14.7618 33.2143 14.7618Z" fill="#FF0000"/>
</svg>
