<svg width="465" height="1089" viewBox="0 0 465 1089" fill="none" xmlns="http://www.w3.org/2000/svg">
<path d="M332.919 69.1623C288.839 76.5069 233.914 60.1038 227.028 49.6544C211.069 73.9746 202.96 73.2131 202.96 73.2131V91.4516L199.357 87.8481C198.246 85.3326 196.481 82.8412 193.841 82.8412C179.327 82.8412 178.313 123.211 202.741 125.544C203.223 127.127 203.721 128.605 204.23 129.942V194.558H259.329V169.144C263.033 170.161 266.583 170.744 269.842 170.744C291.566 170.744 328.585 138.799 332.781 87.8448C333.034 78.2339 332.919 69.1623 332.919 69.1623Z" fill="#FCBEB7"/>
<path d="M266.041 0C228.042 0 220.441 20.2659 220.441 20.2659C204.227 20.2659 179.401 49.907 194.35 82.8379L194.427 82.9152L202.964 91.4516V73.213C202.964 73.213 211.07 73.9746 227.032 49.6544C233.918 60.1038 288.846 76.5069 332.923 69.1623C332.923 69.1623 333.038 78.2338 332.785 87.8481C332.785 87.8582 332.785 87.8684 332.785 87.8785C349.245 40.2517 316.2 0 266.041 0Z" fill="#311643"/>
<path d="M249.702 101.76C248.021 101.76 246.661 100.399 246.661 98.7185V93.0375C246.661 91.3571 248.021 89.9972 249.702 89.9972C251.382 89.9972 252.742 91.3571 252.742 93.0375V98.7185C252.742 100.399 251.379 101.76 249.702 101.76Z" fill="#311643"/>
<path d="M306.067 101.76C304.386 101.76 303.026 100.399 303.026 98.7185V93.0375C303.026 91.3571 304.386 89.9972 306.067 89.9972C307.747 89.9972 309.108 91.3571 309.108 93.0375V98.7185C309.108 100.399 307.747 101.76 306.067 101.76Z" fill="#311643"/>
<path d="M272.051 137.244C266.626 137.244 262.932 135.202 260.693 133.343C257.871 131 256.699 128.444 256.648 128.337C256.332 127.636 256.645 126.811 257.345 126.494C258.046 126.178 258.868 126.491 259.184 127.188C259.342 127.532 263.195 135.613 274.392 134.317C275.156 134.229 275.847 134.775 275.934 135.543C276.022 136.307 275.476 136.998 274.712 137.085C273.786 137.193 272.897 137.244 272.051 137.244Z" fill="#311643"/>
<path d="M229.52 126.966C237.822 126.966 244.552 120.235 244.552 111.933C244.552 103.631 237.822 96.8999 229.52 96.8999C221.217 96.8999 214.487 103.631 214.487 111.933C214.487 120.235 221.217 126.966 229.52 126.966Z" fill="#F49795"/>
<path d="M331.219 99.4527C329.313 109.549 326.12 118.752 322.083 126.945C314.132 126.551 307.811 119.981 307.811 111.933C307.811 103.632 314.54 96.9041 322.841 96.9041C325.942 96.9007 328.825 97.8397 331.219 99.4527Z" fill="#F49795"/>
<path d="M306.067 66.2158C295.092 66.2158 286.03 74.5603 284.888 85.2353C278.921 82.4268 273.654 83.9492 270.876 85.2255C269.731 74.5538 260.673 66.2158 249.701 66.2158C237.955 66.2158 228.402 75.7692 228.402 87.5151C228.402 99.261 237.959 108.815 249.701 108.815C261.181 108.815 270.566 99.6817 270.98 88.2995C272.745 87.2993 278.413 84.7101 284.784 88.3167C285.208 99.6888 294.59 108.811 306.063 108.811C317.809 108.811 327.363 99.2577 327.363 87.5118C327.366 75.7727 317.812 66.2158 306.067 66.2158ZM249.701 106.033C239.491 106.033 231.186 97.7287 231.186 87.5184C231.186 77.3115 239.491 69.0037 249.701 69.0037C259.908 69.0037 268.216 77.3081 268.216 87.5184C268.216 97.7254 259.908 106.033 249.701 106.033ZM306.067 106.033C295.856 106.033 287.552 97.7287 287.552 87.5184C287.552 77.3115 295.856 69.0037 306.067 69.0037C316.277 69.0037 324.581 77.3081 324.581 87.5184C324.581 97.7254 316.277 106.033 306.067 106.033Z" fill="white"/>
<path d="M259.325 194.558V169.144C246.866 165.719 232.682 157.33 222.02 149.332L259.325 194.558Z" fill="#F9AFAB"/>
<path d="M391.033 1015.25H332.68L234.558 583.762L134.037 1015.25H75.6816L130.057 531.168L345.645 531.165L391.033 1015.25Z" fill="#6277D7"/>
<path d="M337.311 1038.71V1079.95C337.311 1084.76 341.21 1088.66 346.019 1088.66H462.986C464.098 1088.66 465 1087.76 465 1086.64V1078.7C465 1075.23 463.013 1072.07 459.888 1070.56L393.935 1038.71H337.311V1038.71Z" fill="#2F3D6C"/>
<path d="M127.69 1038.71V1079.95C127.69 1084.76 123.79 1088.66 118.981 1088.66H2.01385C0.899202 1088.66 0 1087.76 0 1086.64V1078.7C0 1075.23 1.98685 1072.07 5.11191 1070.56L71.0648 1038.71H127.69V1038.71Z" fill="#2F3D6C"/>
<path d="M332.68 1015.25L337.071 1038.71H393.935L391.032 1015.25H332.68Z" fill="#FCBEB7"/>
<path d="M75.6816 1015.25L71.0681 1038.71H127.69L134.037 1015.25H75.6816Z" fill="#FCBEB7"/>
<path d="M128.888 541.55L347.776 553.916L345.645 531.165L130.056 531.168" fill="#4A5EA3"/>
<path d="M331.364 322.537L345.645 531.165H130.057L143.268 382.499L140.338 303.164L129.148 314.318L79.3994 276.072L106.131 232.51C112.745 221.737 122.298 213.076 133.67 207.557L194.989 177.795L197.232 176.707L204.233 173.31C204.233 173.31 236.231 194.309 259.235 173.31L271.523 177.943L274.022 178.883L339.011 203.381C349.188 207.217 357.472 214.868 362.102 224.714L389.666 283.347L331.364 322.537Z" fill="#89AEFF"/>
<path d="M271.52 177.946C260.976 185.432 248.408 189.466 235.215 189.466C221.317 189.466 208.106 184.988 197.232 176.711L194.99 177.798C206.415 186.807 220.441 191.696 235.218 191.696C249.385 191.696 262.862 187.204 274.022 178.883L271.52 177.946Z" fill="white"/>
<path d="M130.993 214.669C130.993 224.903 122.696 233.197 112.462 233.197C110.317 233.197 108.263 232.834 106.346 232.164C112.263 222.657 120.483 214.818 130.222 209.362C130.724 211.046 130.993 212.827 130.993 214.669Z" fill="#4A62D3"/>
<path d="M142.193 751.64C157.62 751.64 170.127 739.133 170.127 723.706C170.127 708.279 157.62 695.773 142.193 695.773C126.766 695.773 114.26 708.279 114.26 723.706C114.26 739.133 126.766 751.64 142.193 751.64Z" fill="#4A5EA3"/>
<path d="M328.542 751.64C343.969 751.64 356.475 739.133 356.475 723.706C356.475 708.279 343.969 695.773 328.542 695.773C313.115 695.773 300.608 708.279 300.608 723.706C300.608 739.133 313.115 751.64 328.542 751.64Z" fill="#4A5EA3"/>
<path d="M236.959 503.545L61.3833 553.646C58.4939 554.471 55.4833 552.798 54.6616 549.909L23.1888 439.62C22.3637 436.73 24.0373 433.719 26.9267 432.898L202.502 382.796C205.392 381.971 208.402 383.644 209.224 386.533L240.697 496.826C241.522 499.709 239.848 502.72 236.959 503.545Z" fill="#4A5EA3"/>
<path d="M300.278 317.523H253.146C251.58 317.523 250.308 316.254 250.308 314.684V226.56C250.308 224.994 251.577 223.721 253.146 223.721H300.278C301.844 223.721 303.117 224.991 303.117 226.56V314.684C303.117 316.254 301.847 317.523 300.278 317.523Z" fill="#4A5EA3"/>
<path d="M428.957 376.233L389.662 283.346L359.678 303.393L317.553 266.478L308.943 236.958C308.821 236.015 308.081 235.275 307.141 235.15C303.013 234.605 299.473 238.083 299.945 242.218L301.423 255.15L285.791 257.221C281.575 257.78 277.288 257.41 273.23 256.133L258.686 251.56C254.318 250.186 249.674 252.661 248.381 257.052L242.768 255.753C240.026 255.12 237.282 256.783 236.575 259.504L236.534 259.652C235.928 261.993 237.012 264.441 239.158 265.559C238.013 270.035 240.67 274.604 245.128 275.82L245.256 275.853C244.054 280.362 246.28 285.08 250.526 287.02L261.531 292.048C265.67 293.941 270.206 294.799 274.749 294.55L299.749 292.516L384.641 403.472L384.658 403.493C392.167 412.453 404.967 415.535 415.939 410.403C428.782 404.402 434.548 389.275 428.957 376.233Z" fill="#FCBEB7"/>
<path d="M362.742 226.085C360.735 226.863 358.556 227.291 356.277 227.291C346.379 227.291 338.355 219.266 338.355 209.366C338.355 207.315 338.702 205.345 339.335 203.506C349.363 207.386 357.519 214.975 362.099 224.718L362.742 226.085Z" fill="#4A62D3"/>
<path d="M365.035 308.094L410.524 332.66L420.808 356.967L365.035 308.094Z" fill="#F9AFAB"/>
<path d="M129.943 534.088L65.5491 421.873L79.1739 417.986L129.943 534.088Z" fill="#2F3D6C"/>
<path d="M403.136 406.388C412.896 406.388 420.808 398.476 420.808 388.715C420.808 378.955 412.896 371.043 403.136 371.043C393.375 371.043 385.463 378.955 385.463 388.715C385.463 398.476 393.375 406.388 403.136 406.388Z" fill="#F9AFAB"/>
<path d="M67.3032 338.405C67.3032 347.527 60.787 355.132 52.1493 356.805L48.9939 349.464C45.8217 342.092 46.31 333.653 50.3106 326.696L53.9104 320.433C61.6557 322.736 67.3032 329.912 67.3032 338.405Z" fill="#F9AFAB"/>
<path d="M177.977 513.768L156.051 503.982C154.532 503.305 153.357 502.04 152.788 500.477L149.609 491.725L160.688 494.442L164.22 502.029C165.409 504.582 168.413 505.73 171.003 504.615L166.389 490.687C165.527 488.471 163.863 486.66 161.728 485.61L138.577 474.22L98.6381 344.675L129.151 314.321L79.4027 276.075L50.3141 326.7C46.3135 333.661 45.8286 342.096 48.9974 349.468L129.73 534.088L145.753 534.826C147.679 534.917 149.498 533.94 150.488 532.286L152.232 529.373L160.664 530.064C162.469 530.212 164.224 529.417 165.305 527.959L167.288 525.282L168.47 525.596C171.7 526.447 175.091 524.972 176.67 522.029L182.523 523.982C183.843 519.921 181.883 515.509 177.977 513.768Z" fill="#FCBEB7"/>
</svg>
