<svg width="62" height="62" viewBox="0 0 62 62" fill="none" xmlns="http://www.w3.org/2000/svg">
<g clip-path="url(#clip0)">
<path d="M35.6748 0.999205C26.8185 0.999205 17.7413 3.70008 11.0332 12.2629C4.3251 20.8261 0.000110879 35.0261 0.000110879 57.8174C-0.00473287 58.1777 0.149298 58.5236 0.427814 58.7638C0.701486 58.9997 1.06186 59.1053 1.42272 59.0477C1.42272 59.0477 8.56338 57.8174 22.1428 57.8174C22.167 57.8174 22.1956 57.8174 22.2198 57.8174C24.6127 60.0421 27.424 61.5078 30.754 61.5078C34.089 61.5078 37.1308 60.0663 39.7494 57.8174C39.7639 57.8174 39.7736 57.8174 39.7881 57.8174C39.8506 57.8222 39.9179 57.8222 39.9804 57.8174C53.3148 57.8174 60.0471 59.0477 60.0471 59.0477C60.4123 59.115 60.7872 59.0186 61.0706 58.7784C61.3544 58.543 61.5128 58.1874 61.508 57.8174C61.508 51.7196 60.9698 47.4236 60.4317 44.6317C60.0423 42.6182 59.7061 41.6044 59.509 41.0565C59.9895 40.1818 60.2777 39.197 60.2777 38.1348V34.4443C60.2777 32.4598 59.2929 30.6914 57.8175 29.5623C57.7502 22.7578 55.7178 16.6649 52.1281 12.2246C48.673 7.95289 43.6946 5.3145 37.8661 5.03599L36.8664 1.84541C36.6983 1.331 36.213 0.990002 35.6748 0.999205ZM34.7903 3.53685L35.7131 6.53513C35.8812 7.04953 36.3665 7.39053 36.9046 7.38085C42.4502 7.38085 46.967 9.75961 50.2061 13.7625C53.1903 17.4529 55.045 22.5704 55.3186 28.409C54.9297 28.332 54.5354 28.2937 54.1271 28.2937H51.6669C51.6282 28.2937 51.5899 28.2937 51.5517 28.2937C50.9171 28.3514 50.4318 28.8847 50.4366 29.5236V31.7536C49.788 31.4412 49.1584 31.3017 48.7069 31.2538C47.2315 29.4083 41.0853 21.6525 38.135 14.1466C37.8899 13.6564 37.5198 13.2912 36.9046 13.4162C36.4149 13.4162 35.9151 13.7722 35.7901 14.2619C34.5598 18.6925 24.3438 31.6238 13.7627 31.8689C13.1475 31.7439 11.6963 31.4988 10.341 32.4836C9.1112 33.4688 8.61133 34.8289 8.61133 36.6739C8.61133 39.5046 10.4423 41.8252 13.1475 42.4404C14.7861 46.7218 16.9867 51.6377 19.9515 55.3955C9.62028 55.4914 4.17591 56.1933 2.53727 56.4335C2.72472 34.8575 6.88599 21.542 12.9552 13.8008C18.9426 6.16022 26.7415 3.70977 34.7903 3.53685ZM36.9046 17.7218C40.5956 25.5929 46.7316 32.8444 46.9767 33.214C47.2218 33.4591 47.6064 33.7139 47.9765 33.7139C47.9765 33.7139 49.7304 33.7381 50.4366 35.213V38.1348C50.4366 39.7352 47.3613 40.0955 47.3613 40.0955C46.8711 40.0955 46.3713 40.6046 46.2463 41.0948C45.6311 43.9255 44.6416 46.621 43.2863 49.2061H46.0157C47.001 46.9911 47.8704 44.6554 48.3606 42.4404C49.1104 42.282 49.7977 42.0078 50.4366 41.6717V43.0555C50.4366 43.7332 50.9893 44.2859 51.6669 44.2859H52.8968C52.8968 47.6736 50.1339 50.4365 46.7462 50.4365H36.6741C36.1602 49.0138 34.8049 47.9763 33.2142 47.9763H30.754C28.7308 47.9763 27.0636 49.6435 27.0636 51.6668C27.0636 53.6895 28.7308 55.3572 30.754 55.3572H33.2142C34.8049 55.3572 36.1602 54.3192 36.6741 52.8966H46.7462C51.4746 52.8966 55.3574 49.0138 55.3574 44.2859V44.1701C56.1837 43.9972 56.9524 43.6755 57.6252 43.2091C57.755 43.7187 57.8606 44.3241 58.0098 45.0928C58.471 47.4716 58.9277 51.3015 59.0091 56.3952C57.4044 56.1501 52.224 55.487 42.1712 55.3955C42.5224 54.9823 42.844 54.5691 43.171 54.1269H39.9804C37.3948 57.0772 34.1994 59.0477 30.754 59.0477C24.8485 59.0477 19.8222 53.1276 15.1465 40.826C15.0215 40.3358 14.5168 40.0955 14.1468 40.0955C12.4268 39.9706 11.0715 38.5194 11.0715 36.6739C11.0715 35.9343 11.1964 34.9297 11.6866 34.5596C12.1768 34.1895 13.1475 34.329 13.1475 34.329H13.5321C23.7432 34.329 33.4593 24.2429 36.9046 17.7218ZM52.8968 30.7539H54.1271C56.1644 30.7539 57.8175 32.407 57.8175 34.4443V38.1348C57.8175 38.8701 57.6107 39.5574 57.2411 40.1338C57.1641 40.2157 57.1016 40.3067 57.0488 40.4031C56.3712 41.2726 55.3094 41.8252 54.1271 41.8252H52.8968V35.4053C52.9835 35.1602 52.998 34.8672 52.8968 34.5596V30.7539ZM30.754 50.4365H33.2142C33.8967 50.4365 34.4445 50.9843 34.4445 51.6668C34.4445 52.3488 33.8967 52.8966 33.2142 52.8966H30.754C30.0716 52.8966 29.5237 52.3488 29.5237 51.6668C29.5237 50.9843 30.0716 50.4365 30.754 50.4365Z" fill="#FF0000"/>
</g>
<defs>
<clipPath id="clip0">
<rect width="62" height="62" fill="white"/>
</clipPath>
</defs>
</svg>
