<svg width="62" height="62" viewBox="0 0 62 62" fill="none" xmlns="http://www.w3.org/2000/svg">
<path d="M22.2812 49.4058V44.9883" stroke="#FF0000" stroke-width="2" stroke-linecap="round" stroke-linejoin="round"/>
<path d="M42.4991 39.5537C41.6571 40.1925 40.9699 41.0128 40.4885 41.9537C40.0072 42.8946 39.7441 43.9318 39.7188 44.9884" stroke="#FF0000" stroke-width="2" stroke-linecap="round" stroke-linejoin="round"/>
<path d="M33.9062 52.7578V55.2184C33.9062 55.7323 33.7021 56.2251 33.3388 56.5885C32.9754 56.9518 32.4826 57.1559 31.9688 57.1559H30.0312C29.5174 57.1559 29.0246 56.9518 28.6612 56.5885C28.2979 56.2251 28.0938 55.7323 28.0938 55.2184V52.7578C28.6824 53.0993 29.3507 53.2797 30.0312 53.2809H31.9688C32.6493 53.2797 33.3176 53.0993 33.9062 52.7578V52.7578Z" stroke="#FF0000" stroke-width="2" stroke-linecap="round" stroke-linejoin="round"/>
<path d="M35.8438 45.5312V49.4062C35.8438 50.434 35.4355 51.4196 34.7088 52.1463C33.9821 52.873 32.9965 53.2812 31.9688 53.2812H30.0312C29.0035 53.2812 28.0179 52.873 27.2912 52.1463C26.5645 51.4196 26.1562 50.434 26.1562 49.4062V45.5312H35.8438Z" stroke="#FF0000" stroke-width="2" stroke-linecap="round" stroke-linejoin="round"/>
<path d="M45.5312 25.0129C45.557 27.221 45.0793 29.4061 44.1343 31.4019C43.1892 33.3978 41.8017 35.152 40.0771 36.5313C38.781 37.532 37.7272 38.8121 36.9943 40.2763C36.2613 41.7405 35.868 43.3512 35.8437 44.9885V45.531H26.1562V44.9885C26.1736 43.4047 25.8262 41.8381 25.1408 40.4101C24.4554 38.9821 23.4504 37.7312 22.2037 36.7541C20.2415 35.2616 18.6912 33.2944 17.6989 31.0376C16.7066 28.7808 16.3047 26.3086 16.5312 23.8537C16.7576 21.3988 17.605 19.0418 18.9934 17.0046C20.3819 14.9674 22.2658 13.317 24.4679 12.2086C26.6701 11.1002 29.118 10.5704 31.5814 10.6688C34.0448 10.7673 36.4426 11.4909 38.5492 12.7715C40.6559 14.0521 42.402 15.8477 43.6235 17.9892C44.8449 20.1307 45.5014 22.5477 45.5312 25.0129V25.0129Z" stroke="#FF0000" stroke-width="2" stroke-linecap="round" stroke-linejoin="round"/>
<path d="M29.0625 45.5312V33.9062" stroke="#FF0000" stroke-width="2" stroke-linecap="round" stroke-linejoin="round"/>
<path d="M32.9375 45.5312V33.9062" stroke="#FF0000" stroke-width="2" stroke-linecap="round" stroke-linejoin="round"/>
<path d="M29.0625 33.9062L23.25 28.0938" stroke="#FF0000" stroke-width="2" stroke-linecap="round" stroke-linejoin="round"/>
<path d="M32.9375 33.9062L38.75 28.0938" stroke="#FF0000" stroke-width="2" stroke-linecap="round" stroke-linejoin="round"/>
<path d="M25.1875 15.1222C26.9534 14.0985 28.9588 13.5604 31 13.5625" stroke="#FF0000" stroke-width="2" stroke-linecap="round" stroke-linejoin="round"/>
<path d="M19.375 25.1871C19.3753 22.5797 20.2521 20.048 21.8647 17.999" stroke="#FF0000" stroke-width="2" stroke-linecap="round" stroke-linejoin="round"/>
<path d="M31 7.75V3.875" stroke="#FF0000" stroke-width="2" stroke-linecap="round" stroke-linejoin="round"/>
<path d="M18.6678 12.8548L15.9263 10.1133" stroke="#FF0000" stroke-width="2" stroke-linecap="round" stroke-linejoin="round"/>
<path d="M13.5625 25.1875H9.6875" stroke="#FF0000" stroke-width="2" stroke-linecap="round" stroke-linejoin="round"/>
<path d="M48.4375 25.1875H52.3125" stroke="#FF0000" stroke-width="2" stroke-linecap="round" stroke-linejoin="round"/>
<path d="M43.332 12.8548L46.0736 10.1133" stroke="#FF0000" stroke-width="2" stroke-linecap="round" stroke-linejoin="round"/>
<path d="M26.1562 48.4375H35.8438" stroke="#FF0000" stroke-width="2" stroke-linecap="round" stroke-linejoin="round"/>
</svg>
