<svg width="62" height="62" viewBox="0 0 62 62" fill="none" xmlns="http://www.w3.org/2000/svg">
<path d="M52.6517 18.8424C52.4821 17.8979 52.2884 17.0986 52.0946 16.5174C49.0915 7.60488 40.7845 1.5502 31.4118 1.47754H30.5642C21.1915 1.5502 12.8845 7.60488 9.88136 16.5174C9.68761 17.0986 9.49386 17.8979 9.32433 18.8424C8.67043 22.5721 9.08214 26.326 10.5111 29.6439C10.5595 29.7408 10.6079 29.8619 10.6806 30.0314C11.8431 32.5986 13.5626 35.5775 15.2337 38.4596C16.6626 40.9541 18.14 43.5213 19.2056 45.701C19.4962 46.2822 20.1986 46.5244 20.7798 46.2338C21.3611 45.9432 21.6032 45.2408 21.3126 44.6596C20.2228 42.383 18.7212 39.7916 17.2681 37.2729C15.6454 34.4393 13.9501 31.5088 12.8361 29.0385L12.6907 28.7479C11.4071 25.7932 11.0439 22.4994 11.6251 19.2299C11.7704 18.3822 11.9157 17.7283 12.0853 17.2439C14.7736 9.27598 22.1845 3.8752 30.54 3.80254H31.3634C39.7189 3.8752 47.154 9.27598 49.8423 17.2439C50.0118 17.7283 50.1571 18.3822 50.3025 19.2299C50.8837 22.4994 50.5204 25.7932 49.2368 28.7236C49.2126 28.7963 49.1642 28.8689 49.14 28.9416L49.0915 29.0385C47.9532 31.5088 46.2821 34.4393 44.6595 37.2729C43.2064 39.7916 41.729 42.383 40.615 44.6596C40.3243 45.2408 40.5665 45.9432 41.1478 46.2338C41.3173 46.3064 41.4868 46.3549 41.6564 46.3549C42.0923 46.3549 42.504 46.1127 42.722 45.701C43.7876 43.4971 45.265 40.9299 46.6939 38.4596C48.3407 35.5775 50.0603 32.5986 51.247 30.0072L51.3923 29.6924C52.8939 26.326 53.3056 22.5721 52.6517 18.8424Z" fill="#FF0000"/>
<path d="M39.549 49.043H22.4748C21.8935 49.043 21.3607 49.3094 20.9732 49.7453C20.6099 50.1812 20.4646 50.7625 20.5615 51.3438L21.3849 55.6547C21.5545 56.575 22.3537 57.2289 23.2982 57.2289H24.606C26.0834 59.2875 28.481 60.5227 31.024 60.5227C33.567 60.5227 35.9646 59.2633 37.442 57.2289H38.7498C39.6701 57.2289 40.4693 56.575 40.663 55.6547L41.4865 51.3438C41.5834 50.7867 41.438 50.2055 41.0748 49.7453C40.663 49.2852 40.106 49.043 39.549 49.043ZM38.3865 54.8797H36.788C36.3763 54.8797 35.9888 55.0977 35.7709 55.4609C34.7779 57.132 32.9615 58.1977 30.9998 58.1977C29.0623 58.1977 27.2216 57.1563 26.2287 55.4609C26.0107 55.0977 25.6232 54.8797 25.2115 54.8797H23.613L22.9591 51.3922H39.0404L38.3865 54.8797Z" fill="#FF0000"/>
<path d="M28.9657 25.963C29.2079 26.2051 29.4985 26.3262 29.8133 26.3262C30.1039 26.3262 30.3946 26.2294 30.6125 26.0114L35.2141 21.6278C35.6743 21.1919 35.6985 20.4411 35.2625 19.9809C34.8266 19.5208 34.0758 19.4965 33.5914 19.9325L29.8375 23.4926L28.4329 22.0395C27.9727 21.5794 27.2461 21.5551 26.7618 22.0153C26.3016 22.4755 26.2774 23.202 26.7375 23.6864L28.9657 25.963Z" fill="#FF0000"/>
<path d="M21.2401 28.6031C20.8284 29.0148 20.78 29.6445 21.119 30.1289C21.894 31.1945 22.8386 32.1391 23.9042 32.9141C24.3644 33.2531 24.9214 33.2531 25.3331 32.8656C25.3815 32.8172 25.43 32.793 25.4784 32.7445C25.6722 32.5508 25.8659 32.3328 26.0839 32.1391C26.1081 32.1148 26.1323 32.0906 26.1565 32.0664C26.762 32.4055 27.4159 32.6477 28.0698 32.8656C28.0698 32.9383 28.0698 32.9867 28.0698 33.0594C28.0698 33.3258 28.0698 33.568 28.0698 33.8828C28.0698 34.4641 28.4815 34.9484 29.0628 35.0453C29.6925 35.1422 30.3222 35.1906 31.0245 35.1906C31.6784 35.1906 32.3323 35.1422 32.962 35.0453C33.5433 34.9484 33.955 34.4156 33.955 33.8344C33.955 33.568 33.955 33.3258 33.955 33.0594C33.955 32.9867 33.955 32.9383 33.955 32.8656C34.6089 32.6719 35.2628 32.4055 35.8683 32.0664L35.8925 32.0906C36.1104 32.3086 36.3284 32.5266 36.5464 32.7445L36.5706 32.7688C36.7159 32.9383 36.9339 33.0352 37.1518 33.1078C37.4909 33.1805 37.83 33.1078 38.1206 32.9141C39.2104 32.1391 40.1308 31.1945 40.9058 30.1289C41.2448 29.6688 41.1964 29.0148 40.7847 28.6031L40.3972 28.1914C40.2761 28.0703 40.1792 27.9734 40.0823 27.8523C40.4214 27.2469 40.6878 26.593 40.8815 25.9148H41.8503C41.9714 25.9148 42.1651 25.8906 42.2862 25.8422C42.6979 25.6969 43.0128 25.3578 43.0854 24.9219C43.2065 24.268 43.255 23.6141 43.255 22.9359C43.255 22.3063 43.2065 21.6281 43.0854 20.95C42.9886 20.393 42.5042 19.957 41.9229 19.957H41.4628C41.269 19.957 41.0753 19.957 40.8815 19.957C40.6878 19.3031 40.4214 18.6734 40.0823 18.068C40.3245 17.8258 40.5667 17.5836 40.8089 17.3656C41.2206 16.9539 41.2933 16.3 40.9542 15.8398C40.1792 14.75 39.2347 13.8297 38.1448 13.0305C37.6847 12.6914 37.0308 12.7398 36.619 13.1758C36.4253 13.3695 36.2073 13.5875 36.0136 13.7813C35.9651 13.8297 35.9409 13.8539 35.8925 13.9023C35.287 13.5633 34.6331 13.3211 33.9792 13.1031V13.0789C33.9792 13.0305 33.9792 13.0063 33.9792 12.9578V12.643C33.9792 12.4734 33.9792 12.3039 33.9792 12.0617C33.9792 11.4805 33.5675 10.9961 32.9862 10.8992C31.6784 10.7055 30.419 10.7055 29.1112 10.8992C28.53 10.9961 28.094 11.5289 28.1183 12.1344C28.1183 12.3039 28.1183 12.4734 28.1183 12.643V13.1031C27.4644 13.2969 26.8104 13.5633 26.205 13.8781C26.1808 13.8539 26.1323 13.8055 26.1081 13.7813C25.8901 13.5875 25.6964 13.3695 25.5026 13.1758C25.0909 12.7641 24.437 12.6914 23.9769 13.0305C22.887 13.8055 21.9425 14.75 21.1675 15.8398C20.8284 16.3242 20.8769 16.9539 21.3128 17.3656C21.555 17.6078 21.7972 17.8258 22.0394 18.068C21.7003 18.6734 21.4581 19.3031 21.2401 19.957C21.0464 19.957 20.8526 19.957 20.6589 19.957H20.1987C19.6175 19.957 19.1331 20.3688 19.0362 20.9258C18.9151 21.5797 18.8667 22.2336 18.8667 22.9359C18.8667 23.5898 18.9151 24.2438 19.0362 24.8977C19.1089 25.3578 19.4722 25.7453 19.9081 25.8422C20.005 25.8664 20.1745 25.8664 20.2714 25.8906H21.2159C21.4097 26.5688 21.7003 27.2227 22.0151 27.8281C21.9183 27.925 21.8214 28.0219 21.7245 28.1188L21.2401 28.6031ZM21.1675 23.5898C21.1433 23.3961 21.1433 23.1781 21.1433 22.9844C21.1433 22.7664 21.1433 22.5727 21.1675 22.3547C21.4097 22.3547 21.6276 22.3547 21.894 22.3789C22.0636 22.3789 22.2331 22.3547 22.3784 22.3305C22.8144 22.2094 23.1534 21.8703 23.2261 21.4344C23.4198 20.4172 23.8315 19.4727 24.3886 18.625C24.6308 18.2375 24.655 17.7531 24.4128 17.3656C24.2917 17.1719 24.1706 17.0508 24.0253 16.9055C23.88 16.7602 23.7589 16.6391 23.6136 16.4938C23.88 16.1789 24.1706 15.8883 24.4854 15.6219C24.655 15.7914 24.8003 15.9367 24.9456 16.082C25.1394 16.3 25.3331 16.4453 25.5753 16.518C25.9144 16.6391 26.3019 16.6148 26.6167 16.3969C27.4886 15.8156 28.4573 15.4281 29.4503 15.2344C29.8378 15.1617 30.1526 14.8953 30.3222 14.532C30.419 14.2898 30.419 14.0719 30.419 13.9266C30.419 13.7813 30.419 13.6359 30.419 13.5148V13.2242C30.8065 13.2 31.194 13.2 31.5815 13.2242V13.3938C31.5815 13.5633 31.5815 13.7328 31.5815 13.9266C31.5573 14.1445 31.6058 14.3625 31.6784 14.5805C31.8237 14.9438 32.1386 15.2102 32.5503 15.2828C33.5433 15.4766 34.512 15.8641 35.3839 16.4453C35.6745 16.6391 36.062 16.6875 36.4011 16.5906C36.6433 16.518 36.8612 16.3484 37.0308 16.1789C37.2003 16.0094 37.3456 15.8398 37.5151 15.6945C37.83 15.9609 38.1206 16.2516 38.387 16.5664C38.2417 16.7117 38.1206 16.8328 37.9995 16.9781C37.8542 17.0992 37.7089 17.2445 37.5878 17.4383C37.3456 17.8258 37.3698 18.3102 37.612 18.6977C38.1933 19.5453 38.5808 20.4898 38.7745 21.507C38.8714 21.943 39.1862 22.3063 39.6222 22.4031C39.7675 22.4516 39.937 22.4758 40.155 22.4516C40.3729 22.4516 40.5909 22.4273 40.8331 22.4273C40.8573 22.6453 40.8573 22.8391 40.8573 23.057C40.8573 23.275 40.8573 23.4688 40.8331 23.6625H39.9854C39.8159 23.6625 39.5979 23.7109 39.4284 23.7836C39.0893 23.9289 38.8472 24.2438 38.7745 24.607C38.5565 25.6484 38.169 26.593 37.5878 27.4648C37.3214 27.8523 37.3214 28.3367 37.5636 28.7484C37.6604 28.8938 37.7573 28.9906 37.83 29.0633C37.9995 29.2328 38.1933 29.4023 38.3628 29.5961C38.0964 29.8867 37.8058 30.1773 37.5151 30.4438C37.3456 30.2742 37.1519 30.0805 36.9581 29.8867C36.8612 29.7898 36.7401 29.693 36.6433 29.6203C36.2558 29.3781 35.7714 29.4023 35.3839 29.6445C34.512 30.2258 33.5675 30.6133 32.5503 30.807C32.1143 30.8797 31.7753 31.2188 31.6542 31.6305C31.6058 31.8242 31.5815 32.018 31.6058 32.1633C31.6058 32.4055 31.6058 32.6234 31.6058 32.8656C31.2183 32.8898 30.8308 32.8898 30.4433 32.8656C30.4433 32.6234 30.4433 32.3813 30.4433 32.1148C30.4433 32.018 30.4433 31.8242 30.3948 31.6305C30.2737 31.2188 29.9347 30.9039 29.4987 30.807C28.4815 30.6133 27.5128 30.2258 26.6651 29.6445C26.2776 29.4023 25.7933 29.3781 25.4058 29.6203C25.2847 29.693 25.1878 29.7656 25.0667 29.8867C24.8972 30.0805 24.7034 30.25 24.5339 30.4195C24.219 30.1531 23.9526 29.8625 23.6862 29.5719C23.8558 29.4023 24.0495 29.2086 24.2433 29.0148C24.2917 28.9664 24.4128 28.8453 24.4854 28.7C24.7034 28.3125 24.7034 27.8281 24.437 27.4406C23.8558 26.5688 23.444 25.6 23.2503 24.5828C23.1776 24.1711 22.8628 23.832 22.4753 23.7109C22.3542 23.6625 22.2089 23.6625 22.0394 23.6383L21.1675 23.5898Z" fill="#FF0000"/>
</svg>
