<svg width="62" height="62" viewBox="0 0 62 62" fill="none" xmlns="http://www.w3.org/2000/svg">
<path d="M33.2885 5.41618C33.007 5.43132 32.7557 5.59782 32.6316 5.85515L29.6496 11.819C29.0139 11.9795 25.6021 12.9331 23.4072 17.1623L23.3861 17.1956L22.8078 18.6487C22.717 18.6154 22.6201 18.6003 22.5233 18.6003C20.4102 18.6003 18.5332 19.6598 17.401 21.2734L11.1374 29.5865L7.46223 31.0578C7.1928 31.1516 6.99905 31.3847 6.95364 31.6663C6.90823 31.9478 7.02327 32.2294 7.24729 32.4019C7.47434 32.5775 7.77707 32.6108 8.03743 32.4927L11.9124 30.9427C12.0426 30.8913 12.1576 30.8035 12.2424 30.6915L18.6573 22.1846C18.6634 22.1756 18.6664 22.1695 18.6725 22.1604C19.4656 21.0282 20.7402 20.2683 22.2024 20.1715L19.1326 27.8639L13.9135 33.4827L14.4614 34.0094C14.4614 34.0094 15.0306 34.5574 15.9872 35.4777C17.3495 36.7825 19.3688 36.9036 21.2942 36.3859C23.2196 35.8682 25.148 34.7178 26.6041 33.2042C26.9523 32.8379 27.4094 32.187 28.0603 31.2546C28.7142 30.3221 29.4983 29.1718 30.2521 28.0516C31.6446 25.984 32.7375 24.3219 32.9343 24.0253H50.3748C50.3779 24.0253 50.3779 24.0253 50.3809 24.0253C52.0974 24.0283 53.4748 25.4057 53.4748 27.1253C53.4748 28.8448 52.0944 30.2253 50.3748 30.2253H48.8248C48.401 30.2313 48.0619 30.5764 48.0619 31.0003C48.0619 31.4241 48.401 31.7692 48.8248 31.7753C50.5444 31.7753 51.9248 33.1557 51.9248 34.8753C51.9248 36.5948 50.5444 37.9753 48.8248 37.9753H48.0498C47.626 37.9813 47.2869 38.3264 47.2869 38.7503C47.2869 39.1741 47.626 39.5192 48.0498 39.5253C49.7694 39.5253 51.1498 40.9057 51.1498 42.6253C51.1498 44.1026 50.1236 45.3196 48.7491 45.6375C48.4525 45.7071 48.2224 45.9402 48.1649 46.2399C48.1043 46.5366 48.2224 46.8424 48.4706 47.021C49.1548 47.5175 49.5998 48.3046 49.5998 49.2128C49.5998 50.7204 48.3949 51.9253 46.8873 51.9253H42.6248V49.6003C42.6248 47.469 40.8811 45.7253 38.7498 45.7253C37.4511 45.7253 36.3552 46.4125 35.6498 47.3994C34.9445 46.4125 33.8486 45.7253 32.5498 45.7253C31.2511 45.7253 30.1552 46.4125 29.4498 47.3994C28.7445 46.4125 27.6486 45.7253 26.3498 45.7253C25.0511 45.7253 23.9552 46.4125 23.2498 47.3994C22.5445 46.4125 21.4486 45.7253 20.1498 45.7253C18.0186 45.7253 16.2748 47.469 16.2748 49.6003V51.9253H7.74983C7.47131 51.9222 7.21096 52.0676 7.06868 52.3097C6.92942 52.5519 6.92942 52.8486 7.06868 53.0908C7.21096 53.333 7.47131 53.4783 7.74983 53.4753H16.6048C17.2072 54.8406 18.5696 55.8003 20.1498 55.8003C21.4486 55.8003 22.5445 55.1131 23.2498 54.1261C23.9552 55.1131 25.0511 55.8003 26.3498 55.8003C27.6486 55.8003 28.7445 55.1131 29.4498 54.1261C30.1552 55.1131 31.2511 55.8003 32.5498 55.8003C33.8486 55.8003 34.9445 55.1131 35.6498 54.1261C36.3552 55.1131 37.4511 55.8003 38.7498 55.8003C40.3301 55.8003 41.6924 54.8406 42.2948 53.4753H46.8873C49.2335 53.4753 51.1498 51.559 51.1498 49.2128C51.1498 48.238 50.7381 47.4115 50.1841 46.694C51.6645 45.916 52.6998 44.4084 52.6998 42.6253C52.6998 41.1358 51.946 39.8643 50.8471 39.0136C52.388 38.2508 53.4748 36.7008 53.4748 34.8753C53.4748 33.513 52.8572 32.3141 51.9188 31.4604C53.714 30.8186 55.0248 29.1385 55.0248 27.1253C55.0248 24.9214 53.4748 23.0717 51.4102 22.5964L51.7765 21.4944C52.3577 19.7507 52.0853 17.8798 51.1862 16.2874L52.6605 11.8705C52.7422 11.6343 52.7059 11.374 52.5636 11.1681C52.4183 10.9623 52.1852 10.8412 51.9339 10.8382C51.5948 10.8382 51.2921 11.0561 51.1892 11.38L49.3001 17.0503H49.8602C50.5383 18.2582 50.7502 19.681 50.3052 21.007L49.8178 22.4753H32.6558C32.344 22.4238 32.0321 22.5631 31.8687 22.8295C31.8687 22.8295 30.47 24.9516 28.9655 27.1858C28.2147 28.3029 27.4336 29.4472 26.7918 30.3645C26.15 31.2818 25.5748 32.0356 25.487 32.1295C24.2367 33.4282 22.5021 34.4575 20.8915 34.8874C19.284 35.3203 17.8945 35.1568 17.0619 34.3576C16.4504 33.7703 16.3323 33.6552 16.0841 33.4191L20.4647 28.7086L24.7877 17.8676C26.8947 13.8231 30.3762 13.1601 30.3762 13.1601L30.7486 13.0875L34.0181 6.54538C34.1452 6.30017 34.1331 6.00349 33.9818 5.77038C33.8304 5.53728 33.567 5.40104 33.2885 5.41618ZM44.1748 13.1753C43.748 13.1753 43.3998 13.5234 43.3998 13.9503C43.3998 14.3771 43.748 14.7253 44.1748 14.7253C44.6017 14.7253 44.9498 14.3771 44.9498 13.9503C44.9498 13.5234 44.6017 13.1753 44.1748 13.1753ZM47.2748 13.9503C46.848 13.9503 46.4998 14.2984 46.4998 14.7253C46.4998 15.1521 46.848 15.5003 47.2748 15.5003C47.7017 15.5003 48.0498 15.1521 48.0498 14.7253C48.0498 14.2984 47.7017 13.9503 47.2748 13.9503ZM42.6248 30.2253C42.198 30.2253 41.8498 30.5734 41.8498 31.0003C41.8498 31.4271 42.198 31.7753 42.6248 31.7753C43.0517 31.7753 43.3998 31.4271 43.3998 31.0003C43.3998 30.5734 43.0517 30.2253 42.6248 30.2253ZM45.7248 30.2253C45.298 30.2253 44.9498 30.5734 44.9498 31.0003C44.9498 31.4271 45.298 31.7753 45.7248 31.7753C46.1517 31.7753 46.4998 31.4271 46.4998 31.0003C46.4998 30.5734 46.1517 30.2253 45.7248 30.2253ZM44.9498 37.9753C44.523 37.9753 44.1748 38.3234 44.1748 38.7503C44.1748 39.1771 44.523 39.5253 44.9498 39.5253C45.3767 39.5253 45.7248 39.1771 45.7248 38.7503C45.7248 38.3234 45.3767 37.9753 44.9498 37.9753ZM45.7248 45.7253C45.298 45.7253 44.9498 46.0734 44.9498 46.5003C44.9498 46.9271 45.298 47.2753 45.7248 47.2753C46.1517 47.2753 46.4998 46.9271 46.4998 46.5003C46.4998 46.0734 46.1517 45.7253 45.7248 45.7253ZM20.1498 47.2753C21.4425 47.2753 22.4748 48.3076 22.4748 49.6003C22.4809 50.0241 22.826 50.3632 23.2498 50.3632C23.6737 50.3632 24.0188 50.0241 24.0248 49.6003C24.0248 48.3076 25.0571 47.2753 26.3498 47.2753C27.6425 47.2753 28.6748 48.3076 28.6748 49.6003C28.6748 49.6275 28.6779 49.6517 28.6779 49.676C28.6839 49.7274 28.696 49.7789 28.7112 49.8303C28.7293 49.8788 28.7505 49.9272 28.7747 49.9726C28.7989 50.015 28.8292 50.0574 28.8655 50.0968C28.9503 50.1967 29.0563 50.2693 29.1804 50.3147C29.2288 50.3329 29.2773 50.348 29.3287 50.3541C29.353 50.3601 29.3802 50.3632 29.4044 50.3632C29.4589 50.3662 29.5104 50.3632 29.5588 50.3571C29.5861 50.3541 29.6103 50.348 29.6345 50.342C29.686 50.3299 29.7344 50.3117 29.7828 50.2905C29.8071 50.2784 29.8282 50.2663 29.8494 50.2542C29.916 50.2118 29.9766 50.1634 30.028 50.1058C30.0613 50.0665 30.0916 50.0241 30.1189 49.9787C30.1703 49.8909 30.2067 49.791 30.2188 49.6881C30.2218 49.6578 30.2248 49.6305 30.2248 49.6003C30.2248 48.3076 31.2571 47.2753 32.5498 47.2753C33.8425 47.2753 34.8748 48.3076 34.8748 49.6003C34.8748 49.6275 34.8779 49.6517 34.8779 49.676C34.8839 49.7032 34.8869 49.7304 34.893 49.7547C34.9384 49.9605 35.0625 50.1361 35.2381 50.2481C35.2623 50.2602 35.2835 50.2723 35.3077 50.2844C35.332 50.2966 35.3531 50.3056 35.3804 50.3147C35.4288 50.3329 35.4773 50.348 35.5287 50.3541C35.5529 50.3601 35.5802 50.3632 35.6044 50.3632C35.6317 50.3632 35.6589 50.3632 35.6831 50.3632C35.7346 50.3601 35.7861 50.3541 35.8345 50.342C35.886 50.3299 35.9344 50.3117 35.9828 50.2905C36.0282 50.2663 36.0737 50.239 36.113 50.2088C36.1342 50.1936 36.1554 50.1785 36.1736 50.1603C36.2523 50.0907 36.3128 50.0059 36.3552 49.9121C36.3673 49.8879 36.3764 49.8636 36.3855 49.8394C36.3915 49.8122 36.4006 49.788 36.4036 49.7637C36.4097 49.7395 36.4157 49.7123 36.4188 49.6881C36.4218 49.6578 36.4248 49.6305 36.4248 49.6003C36.4248 48.3076 37.4571 47.2753 38.7498 47.2753C40.0425 47.2753 41.0748 48.3076 41.0748 49.6003V51.9253C41.0748 53.2179 40.0425 54.2503 38.7498 54.2503C37.4571 54.2503 36.4248 53.2179 36.4248 51.9253C36.4248 51.898 36.4218 51.8738 36.4218 51.8496C36.4157 51.7981 36.4036 51.7467 36.3885 51.6952C36.3703 51.6468 36.3491 51.5983 36.3249 51.5529C36.3007 51.5105 36.2704 51.4681 36.2341 51.4288C36.1857 51.3713 36.1251 51.3198 36.0615 51.2774C36.0373 51.2653 36.0161 51.2532 35.9919 51.2411C35.9677 51.229 35.9465 51.2199 35.9193 51.2108C35.895 51.2017 35.8708 51.1926 35.8466 51.1866C35.7709 51.1684 35.6952 51.1594 35.6165 51.1624C35.5651 51.1654 35.5136 51.1715 35.4652 51.1836C35.4379 51.1896 35.4137 51.1987 35.3895 51.2078C35.3653 51.2138 35.341 51.226 35.3168 51.235C35.2472 51.2683 35.1806 51.3137 35.1261 51.3652C35.0686 51.4197 35.0201 51.4802 34.9808 51.5468C34.9687 51.568 34.9566 51.5923 34.9445 51.6135C34.9323 51.6377 34.9233 51.6619 34.9142 51.6861C34.9081 51.7134 34.899 51.7376 34.896 51.7618C34.8839 51.8133 34.8748 51.8617 34.8748 51.9132C34.8748 51.9192 34.8748 51.9222 34.8748 51.9253C34.8748 53.2179 33.8425 54.2503 32.5498 54.2503C31.2571 54.2503 30.2248 53.2179 30.2248 51.9253C30.2248 51.898 30.2218 51.8738 30.2218 51.8496C30.2157 51.8223 30.2127 51.7951 30.2067 51.7709C30.1946 51.7194 30.1794 51.671 30.1613 51.6225C30.0977 51.4802 29.9917 51.3592 29.8615 51.2774C29.6587 51.1533 29.4135 51.126 29.1895 51.2078C29.141 51.2229 29.0926 51.2471 29.0502 51.2714C29.0048 51.2986 28.9624 51.3289 28.9261 51.3652C28.8867 51.4015 28.8534 51.4409 28.8201 51.4802C28.808 51.5014 28.7929 51.5257 28.7808 51.5468C28.7687 51.568 28.7566 51.5923 28.7445 51.6135C28.7233 51.6619 28.7051 51.7103 28.696 51.7618C28.6839 51.8133 28.6748 51.8617 28.6748 51.9132C28.6748 51.9192 28.6748 51.9222 28.6748 51.9253C28.6748 53.2179 27.6425 54.2503 26.3498 54.2503C25.0571 54.2503 24.0248 53.2179 24.0248 51.9253C24.0188 51.5014 23.6737 51.1624 23.2498 51.1624C22.826 51.1624 22.4809 51.5014 22.4748 51.9253C22.4748 53.2179 21.4425 54.2503 20.1498 54.2503C18.8572 54.2503 17.8248 53.2179 17.8248 51.9253V49.6003C17.8248 48.3076 18.8572 47.2753 20.1498 47.2753Z" fill="white"/>
</svg>
