<svg width="62" height="62" viewBox="0 0 62 62" fill="none" xmlns="http://www.w3.org/2000/svg">
<path d="M3.69045 8.61133C1.66722 8.61133 0 10.2785 0 12.3018V49.2063C0 51.2295 1.66722 52.8968 3.69045 52.8968H57.8174C59.8407 52.8968 61.5079 51.2295 61.5079 49.2063V12.3018C61.5079 10.2785 59.8407 8.61133 57.8174 8.61133H3.69045ZM3.69045 11.0715H57.8174C58.5144 11.0715 59.0477 11.6048 59.0477 12.3018V49.2063C59.0477 49.9033 58.5144 50.4366 57.8174 50.4366H3.69045C2.99392 50.4366 2.46014 49.9033 2.46014 49.2063V12.3018C2.46014 11.6048 2.99392 11.0715 3.69045 11.0715ZM44.0936 22.0663C39.1201 22.0663 36.0205 25.579 36.0205 31.1769C36.0205 36.7608 39.0576 40.2493 44.0936 40.2493C49.1151 40.2493 52.1662 36.7511 52.1662 31.1769C52.1662 25.593 49.0909 22.0663 44.0936 22.0663ZM26.2948 22.1046C22.5128 22.1046 19.9902 24.1278 19.9902 27.2171C19.9902 29.764 21.4268 31.2873 24.5646 32.0226L26.7942 32.5608C29.0916 33.0989 30.1005 33.8918 30.1005 35.2132C30.1005 36.7511 28.4953 37.8661 26.333 37.8661C24.0119 37.8661 22.412 36.8233 22.1815 35.1749H19.5285C19.7208 38.2745 22.2968 40.2493 26.1408 40.2493C30.2492 40.2493 32.83 38.1829 32.83 34.8674C32.83 32.2629 31.3497 30.8165 27.7939 29.9853L25.8719 29.5237C23.6133 28.9953 22.7196 28.3036 22.7196 27.0636C22.7196 25.502 24.1277 24.4494 26.256 24.4494C28.2744 24.4494 29.6583 25.4632 29.9082 27.0636H32.5607C32.4023 24.1467 29.8123 22.1046 26.2948 22.1046ZM11.9558 22.4892V39.8264H14.6465V22.4892H11.9558ZM44.0936 24.6035C47.385 24.6035 49.4368 27.1551 49.4368 31.1769C49.4368 35.1798 47.385 37.7508 44.0936 37.7508C40.7684 37.7508 38.75 35.1798 38.75 31.1769C38.75 27.1503 40.826 24.6035 44.0936 24.6035Z" fill="#FF0000"/>
</svg>
