<svg width="62" height="64" viewBox="0 0 62 64" fill="none" xmlns="http://www.w3.org/2000/svg">
<g clip-path="url(#clip0)">
<path d="M61.8824 52.1714L48.1181 38.3971L48.8489 38.1768C50.2003 37.7764 51.6017 37.366 52.2424 36.2548C52.8831 35.1437 52.5327 33.7622 52.2424 32.4008C51.9401 31.4994 51.841 30.5422 51.9521 29.5979C52.3199 28.7592 52.8666 28.011 53.5538 27.4056C54.5548 26.4046 55.5559 25.3034 55.5559 23.9921C55.5559 22.6807 54.5548 21.6096 53.5538 20.5785C52.8666 19.9732 52.3199 19.2249 51.9521 18.3862C51.841 17.442 51.9401 16.4848 52.2424 15.5833C52.5627 14.2219 52.9031 12.8205 52.2424 11.7293C51.5817 10.6382 50.2403 10.2077 48.8489 9.80732C47.9313 9.62256 47.0662 9.23619 46.3162 8.67614C45.7562 7.92617 45.3698 7.0611 45.1851 6.1435C44.7846 4.7921 44.3742 3.39064 43.2631 2.74997C42.1519 2.10931 40.7705 2.44966 39.4091 2.74997C38.5076 3.05225 37.5504 3.15139 36.6061 3.04027C35.7674 2.67244 35.0192 2.12581 34.4139 1.43861C33.4128 0.437565 32.3117 -0.563477 31.0003 -0.563477C29.6889 -0.563477 28.6178 0.437565 27.5868 1.43861C26.9814 2.12581 26.2332 2.67244 25.3945 3.04027C24.4502 3.15139 23.493 3.05225 22.5916 2.74997C21.2301 2.41963 19.8287 2.08929 18.7375 2.74997C17.6464 3.41066 17.216 4.75206 16.8155 6.1435C16.6308 7.0611 16.2444 7.92617 15.6844 8.67614C14.9344 9.23619 14.0693 9.62256 13.1517 9.80732C11.8003 10.2077 10.3989 10.6182 9.7582 11.7293C9.11754 12.8405 9.4679 14.2219 9.7582 15.5733C10.06 16.4783 10.1591 17.4387 10.0485 18.3862C9.68067 19.2249 9.13404 19.9732 8.44684 20.5785C7.4458 21.5796 6.44476 22.6807 6.44476 23.9921C6.44476 25.3034 7.4458 26.3746 8.44684 27.4056C9.13404 28.011 9.68067 28.7592 10.0485 29.5979C10.1591 30.5455 10.06 31.5058 9.7582 32.4108C9.43787 33.7622 9.09752 35.1637 9.7582 36.2548C10.4189 37.346 11.7603 37.7764 13.1517 38.1768L13.8825 38.3971L0.118174 52.1714C0.0488861 52.2365 0.000485484 52.3208 -0.0208985 52.4134C-0.0422825 52.5061 -0.035687 52.603 -0.00195027 52.6919C0.0279501 52.7803 0.0824474 52.8584 0.155146 52.9169C0.227845 52.9754 0.315727 53.012 0.408477 53.0223L9.02744 54.0233L9.97843 62.5922C9.9883 62.6866 10.0259 62.7759 10.0865 62.849C10.147 62.922 10.2279 62.9755 10.3188 63.0027C10.3717 63.0132 10.4261 63.0132 10.479 63.0027C10.6142 63.0023 10.7438 62.9483 10.8393 62.8525L27.3065 46.2552L27.5868 46.5155C28.5878 47.5166 29.6889 48.5176 31.0003 48.5176C32.3117 48.5176 33.3828 47.5166 34.4139 46.5155L34.6941 46.2552L51.1613 62.8825C51.2568 62.9784 51.3864 63.0324 51.5217 63.0327C51.5746 63.0423 51.6289 63.0423 51.6818 63.0327C51.7727 63.0055 51.8536 62.9521 51.9142 62.879C51.9747 62.806 52.0123 62.7166 52.0222 62.6223L53.0232 54.0233L61.6422 53.0223C61.7349 53.012 61.8228 52.9754 61.8955 52.9169C61.9682 52.8584 62.0227 52.7803 62.0526 52.6919C62.0806 52.5982 62.0794 52.4981 62.0489 52.405C62.0185 52.312 61.9604 52.2305 61.8824 52.1714ZM10.8293 61.431L9.9484 53.4227C9.93388 53.311 9.8828 53.2072 9.80313 53.1275C9.72346 53.0478 9.61967 52.9968 9.50794 52.9822L1.49961 52.1013L14.9036 38.7975L15.0637 38.8776L15.2539 38.9877C15.4089 39.0781 15.5533 39.1855 15.6844 39.308C16.2444 40.058 16.6308 40.9231 16.8155 41.8406C17.216 43.1921 17.6264 44.5935 18.7375 45.2342C19.8487 45.8748 21.2301 45.5245 22.5916 45.2342C23.493 44.9319 24.4502 44.8328 25.3945 44.9439C25.5715 45.0002 25.7425 45.074 25.905 45.1641H25.9551C26.1294 45.2661 26.2967 45.3798 26.4556 45.5045H26.5056L10.8293 61.431ZM31.0003 47.5166C30.0894 47.5166 29.1684 46.6456 28.2775 45.7948C28.0673 45.5845 27.847 45.3843 27.6268 45.1841C27.4566 45.034 27.2864 44.8838 27.0962 44.7437L26.9261 44.6135C26.7836 44.5053 26.633 44.4082 26.4756 44.3232L26.2954 44.2131C26.0919 44.1034 25.8771 44.0161 25.6547 43.9528C25.4162 43.8896 25.1708 43.856 24.924 43.8527H24.7538C24.5336 43.8527 24.3033 43.8527 24.0831 43.8527H23.9329C23.7227 43.8527 23.5025 43.9128 23.2923 43.9629H23.0821L22.3513 44.133C21.13 44.4233 19.9788 44.6936 19.2381 44.2632C18.4973 43.8327 18.1169 42.6215 17.7765 41.4603C17.5622 40.3634 17.0885 39.3337 16.3951 38.4571C16.2117 38.2799 16.0104 38.1223 15.7945 37.9866H15.7444C15.5483 37.8692 15.3443 37.7655 15.1338 37.6763L14.9836 37.7364C14.4931 37.5362 13.9826 37.386 13.442 37.2258C12.2808 36.8855 11.0796 36.5251 10.6391 35.7643C10.1987 35.0035 10.479 33.8724 10.7693 32.6511C11.1256 31.5882 11.2217 30.4554 11.0495 29.3476C10.6555 28.338 10.0236 27.4383 9.20763 26.7249C8.36676 25.834 7.48584 24.913 7.48584 24.0021C7.48584 23.0911 8.36676 22.1702 9.20763 21.2793C10.0236 20.5659 10.6555 19.6662 11.0495 18.6565C11.2217 17.5488 11.1256 16.416 10.7693 15.3531C10.479 14.1318 10.1987 12.9806 10.6391 12.2398C11.0796 11.4991 12.2808 11.1187 13.442 10.7783C14.5389 10.5639 15.5686 10.0903 16.4452 9.39689C17.1426 8.52284 17.6167 7.49211 17.8266 6.39376C18.167 5.23256 18.5273 4.03131 19.2881 3.59085C20.0489 3.15039 21.1801 3.43068 22.4014 3.72098C23.4642 4.07731 24.5971 4.17343 25.7048 4.00127C26.7145 3.60721 27.6142 2.97536 28.3275 2.15936C29.2185 1.31848 30.1394 0.437565 31.0504 0.437565C31.9613 0.437565 32.8823 1.31848 33.7732 2.15936C34.4865 2.97536 35.3862 3.60721 36.3959 4.00127C37.5036 4.17343 38.6365 4.07731 39.6994 3.72098C40.9206 3.43068 42.0718 3.1604 42.8126 3.59085C43.5534 4.0213 43.9338 5.23256 44.2741 6.39376C44.4885 7.49065 44.9622 8.52034 45.6556 9.39689C46.5321 10.0903 47.5618 10.5639 48.6587 10.7783C49.8199 11.1187 51.0211 11.4791 51.4616 12.2398C51.9021 13.0006 51.6218 14.1318 51.3315 15.3531C50.9751 16.416 50.879 17.5488 51.0512 18.6565C51.4452 19.6662 52.0771 20.5659 52.8931 21.2793C53.734 22.1702 54.6149 23.0911 54.6149 24.0021C54.6149 24.913 53.734 25.834 52.8931 26.7249C52.0771 27.4383 51.4452 28.338 51.0512 29.3476C50.879 30.4554 50.9751 31.5882 51.3315 32.6511C51.6218 33.8724 51.9021 35.0236 51.4616 35.7643C51.0211 36.5051 49.8199 36.8855 48.6587 37.2258C48.1381 37.386 47.6576 37.5362 47.1071 37.7364L46.9569 37.8064C46.7458 37.8904 46.5416 37.9908 46.3463 38.1068C46.1255 38.2398 45.9206 38.3977 45.7356 38.5773C45.0423 39.4538 44.5686 40.4835 44.3542 41.5804C44.0138 42.7416 43.6535 43.9428 42.8927 44.3833C42.069 44.6875 41.1637 44.6875 40.34 44.3833L39.7794 44.2532C38.9589 44.0148 38.111 43.8836 37.2568 43.8628C36.9931 43.8685 36.731 43.9055 36.476 43.9729C36.2536 44.0361 36.0388 44.1234 35.8353 44.2331L35.6552 44.3332L35.1947 44.6436L35.0345 44.7537L34.504 45.2041C34.2837 45.4044 34.0635 45.6046 33.8533 45.8148C32.8322 46.6356 31.9113 47.5166 31.0003 47.5166ZM52.4626 53.0223C52.3509 53.0368 52.2471 53.0879 52.1674 53.1676C52.0878 53.2472 52.0367 53.351 52.0222 53.4627L51.1413 61.4711L35.4449 45.5845H35.505C35.6639 45.4599 35.8311 45.3461 36.0055 45.2442H36.0556C36.2181 45.1541 36.3891 45.0803 36.5661 45.024C37.0154 44.9331 37.4783 44.9331 37.9275 45.024C38.388 45.094 38.9286 45.2042 39.369 45.3243L39.5993 45.3743C40.7022 45.771 41.9046 45.7956 43.0228 45.4444C43.0921 45.4205 43.1592 45.3903 43.223 45.3543C44.3342 44.7136 44.7446 43.3522 45.145 41.9608C45.3244 40.9977 45.7254 40.0895 46.3162 39.308C46.4473 39.1855 46.5917 39.0781 46.7467 38.9877L46.9469 38.8776L47.0971 38.7975L60.4409 52.1414L52.4626 53.0223Z" fill="#FF0000"/>
<path d="M15.9846 19.9887C15.8558 19.9586 15.7204 19.9807 15.6079 20.0501C15.4953 20.1195 15.4148 20.2306 15.3839 20.3591C15.3139 20.7095 15.2438 21.0498 15.1837 21.3602C15.1634 21.4901 15.1951 21.6228 15.2719 21.7296C15.3487 21.8364 15.4645 21.9087 15.5942 21.9308H15.6742C15.7942 21.9323 15.9107 21.8907 16.0026 21.8135C16.0945 21.7364 16.1556 21.6288 16.1748 21.5103C16.1748 21.18 16.2849 20.8596 16.365 20.5093C16.3731 20.3916 16.3393 20.2748 16.2697 20.1796C16.2001 20.0844 16.0991 20.0168 15.9846 19.9887Z" fill="#FF0000"/>
<path d="M15.5142 25.0624C15.4488 25.0674 15.385 25.0854 15.3267 25.1155C15.2684 25.1456 15.2167 25.1871 15.1747 25.2375C15.1327 25.2879 15.1013 25.3462 15.0822 25.409C15.0631 25.4717 15.0569 25.5377 15.0637 25.6029C15.0637 25.9633 15.1438 26.3137 15.2039 26.604C15.2209 26.7216 15.2799 26.829 15.3701 26.9064C15.4604 26.9837 15.5756 27.0256 15.6944 27.0244H15.7845C15.9142 27.0023 16.0299 26.9301 16.1067 26.8233C16.1835 26.7165 16.2152 26.5838 16.1949 26.4538C16.1349 26.1235 16.0948 25.8032 16.0648 25.4528C16.0383 25.3308 15.9671 25.2231 15.8652 25.1508C15.7633 25.0786 15.6381 25.047 15.5142 25.0624Z" fill="#FF0000"/>
<path d="M17.356 30.2788C17.33 30.2182 17.2921 30.1634 17.2444 30.1178C17.1968 30.0722 17.1405 30.0366 17.0788 30.0132C17.0171 29.9899 16.9514 29.9792 16.8855 29.9818C16.8196 29.9845 16.7549 30.0004 16.6953 30.0286C16.5764 30.0852 16.484 30.1855 16.4374 30.3086C16.3908 30.4317 16.3935 30.5681 16.445 30.6893C16.5952 31.0096 16.7553 31.3299 16.9255 31.6903C16.9695 31.7686 17.0334 31.8339 17.1108 31.8796C17.1881 31.9253 17.2761 31.9498 17.366 31.9506C17.4497 31.9498 17.532 31.9292 17.6062 31.8905C17.7213 31.8251 17.8065 31.7176 17.8439 31.5906C17.8812 31.4636 17.8678 31.3271 17.8064 31.2098C17.6463 30.8694 17.4961 30.5791 17.356 30.2788Z" fill="#FF0000"/>
<path d="M20.1391 34.353C20.0438 34.2606 19.9164 34.209 19.7837 34.209C19.651 34.209 19.5236 34.2606 19.4283 34.353C19.3814 34.3995 19.3442 34.4549 19.3188 34.5159C19.2934 34.5768 19.2803 34.6423 19.2803 34.7083C19.2803 34.7744 19.2934 34.8398 19.3188 34.9008C19.3442 34.9618 19.3814 35.0172 19.4283 35.0637C19.6786 35.314 19.9288 35.5642 20.1891 35.8045C20.2837 35.8867 20.4042 35.9328 20.5295 35.9346C20.669 35.931 20.8017 35.8736 20.8999 35.7744C20.9922 35.6792 21.0438 35.5517 21.0438 35.4191C21.0438 35.2864 20.9922 35.159 20.8999 35.0637C20.5995 34.8335 20.3693 34.5932 20.1391 34.353Z" fill="#FF0000"/>
<path d="M18.1168 15.3226C18.0034 15.2546 17.868 15.2333 17.7391 15.2632C17.6103 15.2931 17.4981 15.3718 17.4261 15.4827C17.2359 15.7831 17.0657 16.0834 16.8956 16.4037C16.8641 16.4608 16.8443 16.5235 16.8373 16.5883C16.8303 16.6531 16.8363 16.7186 16.855 16.7811C16.8736 16.8435 16.9045 16.9016 16.9458 16.952C16.9872 17.0023 17.0382 17.044 17.0958 17.0744C17.17 17.1131 17.2523 17.1337 17.336 17.1345C17.4263 17.1358 17.5151 17.1122 17.5929 17.0663C17.6706 17.0204 17.7341 16.9539 17.7765 16.8742C17.9366 16.5839 18.0968 16.2936 18.277 16.0133C18.3119 15.9575 18.3355 15.8953 18.3464 15.8303C18.3572 15.7653 18.3552 15.6989 18.3403 15.6347C18.3254 15.5705 18.298 15.5099 18.2597 15.4564C18.2213 15.4028 18.1728 15.3573 18.1168 15.3226Z" fill="#FF0000"/>
<path d="M42.5925 34.8035C42.662 34.8046 42.731 34.7908 42.7949 34.7632C42.8587 34.7356 42.916 34.6947 42.9628 34.6433C43.2031 34.373 43.4233 34.1027 43.6436 33.8224C43.6886 33.771 43.7226 33.711 43.7435 33.6459C43.7644 33.5809 43.7718 33.5122 43.7652 33.4442C43.7585 33.3762 43.7381 33.3103 43.705 33.2505C43.6719 33.1907 43.627 33.1383 43.5729 33.0965C43.5188 33.0548 43.4568 33.0245 43.3905 33.0077C43.3243 32.9908 43.2554 32.9877 43.1879 32.9985C43.1204 33.0093 43.0559 33.0338 42.9982 33.0705C42.9406 33.1072 42.8911 33.1553 42.8527 33.2118C42.6525 33.4721 42.4423 33.7223 42.2221 33.9726C42.1542 34.0429 42.1088 34.132 42.0919 34.2282C42.075 34.3245 42.0872 34.4237 42.127 34.513C42.1668 34.6023 42.2324 34.6776 42.3153 34.7294C42.3982 34.7812 42.4948 34.8069 42.5925 34.8035Z" fill="#FF0000"/>
<path d="M45.4754 19.9879C45.5073 20.0937 45.572 20.1867 45.6602 20.2533C45.7483 20.3198 45.8554 20.3566 45.9659 20.3583H46.096C46.2238 20.321 46.332 20.2352 46.3974 20.1193C46.4629 20.0033 46.4805 19.8664 46.4464 19.7377C46.3563 19.3973 46.2462 19.067 46.1361 18.7366C46.0923 18.6105 46.0002 18.507 45.88 18.4488C45.7599 18.3906 45.6215 18.3825 45.4954 18.4263C45.3693 18.4701 45.2658 18.5622 45.2076 18.6824C45.1494 18.8025 45.1413 18.9409 45.1851 19.067C45.2952 19.3673 45.3953 19.6876 45.4754 19.9879Z" fill="#FF0000"/>
<path d="M45.1252 30.4485C45.1878 30.4626 45.2528 30.4626 45.3154 30.4485C45.4142 30.448 45.5106 30.4182 45.5926 30.363C45.6745 30.3078 45.7383 30.2295 45.7758 30.1381C45.916 29.8178 46.0361 29.4875 46.1562 29.1371C46.1978 29.0123 46.1885 28.8762 46.1304 28.7581C46.0723 28.6401 45.9701 28.5497 45.8459 28.5064C45.7197 28.4646 45.5822 28.4736 45.4626 28.5315C45.3429 28.5895 45.2506 28.6918 45.2053 28.8168C45.0951 29.1271 44.985 29.4374 44.8549 29.7477C44.8203 29.8104 44.7999 29.8799 44.7951 29.9513C44.7902 30.0227 44.8011 30.0943 44.8268 30.1611C44.8526 30.2278 44.8926 30.2882 44.9442 30.3378C44.9957 30.3875 45.0575 30.4252 45.1252 30.4485Z" fill="#FF0000"/>
<path d="M43.4031 15.5237C43.4485 15.5909 43.5096 15.6461 43.5811 15.6844C43.6526 15.7228 43.7323 15.7432 43.8135 15.7439C43.9141 15.7446 44.0124 15.713 44.0938 15.6538C44.1484 15.6176 44.1951 15.5708 44.2314 15.5162C44.2676 15.4616 44.2925 15.4003 44.3046 15.3359C44.3167 15.2715 44.3158 15.2054 44.302 15.1413C44.2881 15.0773 44.2616 15.0167 44.2239 14.9631C44.0317 14.669 43.8246 14.385 43.6033 14.1122C43.5649 14.0556 43.5154 14.0075 43.4578 13.9709C43.4001 13.9342 43.3356 13.9097 43.2681 13.8989C43.2006 13.8881 43.1317 13.8912 43.0655 13.9081C42.9992 13.9249 42.9372 13.9552 42.8831 13.9969C42.829 14.0387 42.7841 14.0911 42.751 14.1509C42.7179 14.2107 42.6975 14.2766 42.6908 14.3446C42.6842 14.4126 42.6916 14.4813 42.7125 14.5463C42.7334 14.6114 42.7674 14.6714 42.8124 14.7228C43.0126 14.9831 43.2129 15.2534 43.4031 15.5237Z" fill="#FF0000"/>
<path d="M46.0159 23.9922C46.0159 24.3192 46.0159 24.6529 46.0159 24.9933C46.0104 25.0585 46.0181 25.1242 46.0384 25.1864C46.0587 25.2486 46.0913 25.3062 46.1342 25.3556C46.1771 25.4051 46.2295 25.4454 46.2883 25.4743C46.347 25.5032 46.411 25.52 46.4763 25.5238C46.6024 25.5242 46.724 25.477 46.8168 25.3916C46.9096 25.3063 46.9668 25.189 46.9769 25.0633C46.9769 24.713 46.9769 24.3526 46.9769 24.0022V23.9321C46.9756 23.8686 46.9616 23.806 46.9355 23.748C46.9094 23.69 46.8718 23.638 46.825 23.5949C46.7782 23.5519 46.7232 23.5188 46.6633 23.4976C46.6034 23.4764 46.5398 23.4676 46.4763 23.4717C46.3489 23.4865 46.2315 23.5478 46.1465 23.6438C46.0615 23.7399 46.015 23.864 46.0159 23.9922Z" fill="#FF0000"/>
<path d="M29.7787 39.0076C29.4483 39.0076 29.118 38.9475 28.7776 38.8975C28.6449 38.8789 28.5102 38.9138 28.4032 38.9945C28.2962 39.0752 28.2256 39.1952 28.207 39.3279C28.1884 39.4607 28.2234 39.5953 28.3041 39.7023C28.3848 39.8094 28.5047 39.8799 28.6375 39.8985C28.9778 39.9519 29.3282 39.9919 29.6886 40.0186C29.8213 40.0186 29.9486 39.9659 30.0425 39.872C30.1364 39.7782 30.1891 39.6508 30.1891 39.5181C30.1891 39.3854 30.1364 39.2581 30.0425 39.1642C29.9486 39.0703 29.8213 39.0176 29.6886 39.0176L29.7787 39.0076Z" fill="#FF0000"/>
<path d="M24.7238 10.2984C24.7935 10.3079 24.8642 10.3079 24.934 10.2984C25.2343 10.1583 25.5346 10.0381 25.8449 9.91802C25.9075 9.89681 25.9652 9.86316 26.0144 9.81911C26.0637 9.77506 26.1035 9.7215 26.1316 9.66167C26.1596 9.60183 26.1753 9.53695 26.1776 9.47091C26.18 9.40487 26.169 9.33903 26.1452 9.27735C26.1001 9.1526 26.0072 9.0509 25.8871 8.99459C25.7669 8.93827 25.6293 8.93196 25.5046 8.97704L24.5035 9.37746C24.3829 9.43208 24.2888 9.53228 24.2419 9.65611C24.195 9.77994 24.1991 9.91731 24.2533 10.0381C24.2978 10.1226 24.3661 10.1923 24.4497 10.2385C24.5332 10.2847 24.6285 10.3056 24.7238 10.2984Z" fill="#FF0000"/>
<path d="M24.9938 37.7563C24.6935 37.6262 24.3932 37.476 24.0929 37.3258C23.9759 37.2657 23.84 37.2541 23.7144 37.2934C23.5889 37.3328 23.4839 37.4199 23.4222 37.5361C23.3616 37.6545 23.3497 37.792 23.3889 37.9191C23.4282 38.0463 23.5156 38.1531 23.6324 38.2168C23.9527 38.3769 24.2631 38.5271 24.6335 38.6672C24.6955 38.6989 24.764 38.716 24.8337 38.7173C24.9308 38.7152 25.0254 38.686 25.1068 38.6329C25.1882 38.5798 25.2531 38.505 25.2941 38.417C25.3196 38.354 25.332 38.2866 25.3306 38.2187C25.3291 38.1508 25.3139 38.084 25.2858 38.0222C25.2577 37.9604 25.2173 37.9049 25.1671 37.8592C25.117 37.8135 25.058 37.7785 24.9938 37.7563Z" fill="#FF0000"/>
<path d="M34.9445 39.5181C35.0084 39.5018 35.0683 39.473 35.121 39.4334C35.1737 39.3939 35.218 39.3443 35.2515 39.2876C35.285 39.2309 35.3069 39.1681 35.3161 39.1028C35.3253 39.0376 35.3215 38.9712 35.3049 38.9075C35.2897 38.844 35.262 38.7843 35.2235 38.7317C35.1849 38.6791 35.1362 38.6347 35.0803 38.6012C35.0244 38.5676 34.9623 38.5455 34.8977 38.5362C34.8332 38.527 34.7674 38.5306 34.7043 38.5471C34.384 38.6272 34.0536 38.6972 33.7033 38.7573C33.5734 38.7816 33.4584 38.8563 33.3834 38.9651C33.3084 39.0739 33.2794 39.2079 33.3028 39.3379C33.322 39.4537 33.382 39.5587 33.472 39.6341C33.562 39.7094 33.676 39.7499 33.7933 39.7483H33.8834C34.2638 39.6783 34.6042 39.6082 34.9445 39.5181Z" fill="#FF0000"/>
<path d="M29.669 9.03655L30.67 8.9865C30.7358 8.9852 30.8006 8.97096 30.8608 8.94459C30.9211 8.91823 30.9755 8.88026 31.0211 8.83285C31.0666 8.78544 31.1024 8.72952 31.1263 8.66828C31.1502 8.60705 31.1619 8.5417 31.1605 8.47597C31.1553 8.34232 31.0979 8.21605 31.0005 8.12432C30.9032 8.0326 30.7737 7.98273 30.64 7.98546L29.639 8.04552C29.5732 8.05057 29.509 8.06859 29.4502 8.09853C29.3914 8.12848 29.3391 8.16976 29.2963 8.22C29.2535 8.27024 29.221 8.32845 29.2008 8.39128C29.1806 8.45411 29.173 8.52031 29.1785 8.58608C29.1947 8.70665 29.2527 8.81773 29.3423 8.90002C29.4319 8.98231 29.5475 9.03062 29.669 9.03655Z" fill="#FF0000"/>
<path d="M39.1687 11.3885C39.449 11.5687 39.7193 11.7589 39.9796 11.9591C40.0659 12.0248 40.1715 12.06 40.2799 12.0592C40.3579 12.0609 40.4351 12.0435 40.5048 12.0086C40.5746 11.9737 40.6348 11.9224 40.6803 11.859C40.7599 11.7528 40.7941 11.6193 40.7754 11.4879C40.7566 11.3565 40.6864 11.2379 40.5802 11.1583C40.2999 10.9481 40.0096 10.7478 39.7193 10.5476C39.6062 10.4756 39.4693 10.451 39.3382 10.4791C39.207 10.5072 39.0922 10.5858 39.0186 10.6978C38.9471 10.8094 38.9227 10.9447 38.9509 11.0742C38.979 11.2037 39.0574 11.3167 39.1687 11.3885Z" fill="#FF0000"/>
<path d="M20.9196 11.5392L20.1188 12.2299C20.0718 12.2764 20.0346 12.3318 20.0092 12.3928C19.9838 12.4538 19.9707 12.5192 19.9707 12.5853C19.9707 12.6513 19.9838 12.7168 20.0092 12.7778C20.0346 12.8388 20.0718 12.8941 20.1188 12.9406C20.1641 12.9913 20.2196 13.0318 20.2818 13.0594C20.3439 13.087 20.4112 13.1011 20.4791 13.1008C20.5417 13.1028 20.604 13.0924 20.6624 13.07C20.7209 13.0477 20.7743 13.0139 20.8195 12.9707C21.0697 12.7404 21.32 12.5302 21.5703 12.32C21.6734 12.2374 21.7397 12.1174 21.7547 11.9861C21.7697 11.8549 21.7322 11.723 21.6504 11.6193C21.6084 11.565 21.5559 11.5197 21.4961 11.4861C21.4362 11.4526 21.3702 11.4314 21.302 11.4239C21.2338 11.4165 21.1648 11.4228 21.0991 11.4426C21.0334 11.4624 20.9723 11.4953 20.9196 11.5392Z" fill="#FF0000"/>
<path d="M39.219 36.5655C38.9487 36.7457 38.6584 36.9159 38.3681 37.0761C38.3109 37.1082 38.2606 37.1515 38.2204 37.2034C38.1802 37.2554 38.1508 37.3148 38.134 37.3783C38.1172 37.4418 38.1133 37.508 38.1226 37.573C38.1318 37.638 38.1541 37.7005 38.1879 37.7568C38.2295 37.835 38.2915 37.9005 38.3673 37.9463C38.443 37.9921 38.5298 38.0166 38.6184 38.017C38.7067 38.0176 38.7935 37.9934 38.8686 37.947C39.169 37.7768 39.4693 37.5866 39.7696 37.3964C39.8793 37.323 39.9556 37.2093 39.9818 37.0799C40.0081 36.9505 39.9822 36.816 39.9097 36.7057C39.8743 36.6503 39.8281 36.6026 39.7739 36.5654C39.7196 36.5283 39.6585 36.5024 39.5941 36.4893C39.5296 36.4762 39.4632 36.4762 39.3988 36.4893C39.3344 36.5024 39.2732 36.5283 39.219 36.5655Z" fill="#FF0000"/>
<path d="M34.6341 9.41676C34.9611 9.49685 35.2947 9.58694 35.6351 9.68704C35.6847 9.69651 35.7356 9.69651 35.7853 9.68704C35.8919 9.68615 35.9956 9.65188 36.0818 9.58904C36.168 9.5262 36.2323 9.43795 36.2658 9.33668C36.3037 9.20924 36.2903 9.07204 36.2286 8.95427C36.167 8.83649 36.0618 8.74743 35.9354 8.70602L34.9344 8.41572C34.8044 8.38536 34.6676 8.40713 34.5535 8.47637C34.4394 8.5456 34.3569 8.65679 34.3237 8.78611C34.3018 8.84784 34.2924 8.91334 34.2962 8.97875C34.3 9.04415 34.3169 9.10813 34.3458 9.16692C34.3747 9.2257 34.4151 9.2781 34.4646 9.32101C34.5142 9.36392 34.5718 9.39648 34.6341 9.41676Z" fill="#FF0000"/>
<path d="M38.3481 20.6581C38.2596 20.5587 38.1357 20.4979 38.0029 20.4886C37.8702 20.4792 37.739 20.5221 37.6374 20.608L28.6981 28.266L24.9942 23.3609C24.9548 23.3083 24.9054 23.264 24.8488 23.2305C24.7923 23.197 24.7297 23.175 24.6646 23.1657C24.5995 23.1564 24.5333 23.16 24.4696 23.1763C24.4059 23.1927 24.3461 23.2214 24.2935 23.2608C24.1895 23.342 24.121 23.4603 24.1023 23.591C24.0836 23.7216 24.1163 23.8544 24.1934 23.9615L28.1976 29.2971L28.3077 29.3772H28.3677C28.4371 29.3909 28.5086 29.3909 28.578 29.3772C28.6778 29.3731 28.7747 29.342 28.8583 29.2871H28.9984L38.3381 21.2787C38.4078 21.1908 38.4465 21.0823 38.4483 20.9701C38.4501 20.8579 38.4149 20.7483 38.3481 20.6581Z" fill="#FF0000"/>
</g>
<defs>
<clipPath id="clip0">
<rect width="62" height="63.55" fill="white"/>
</clipPath>
</defs>
</svg>
