<svg width="96" height="96" viewBox="0 0 96 96" fill="none" xmlns="http://www.w3.org/2000/svg">
<path d="M79 48.38L74.09 40.2C73.692 39.5307 73.127 38.9761 72.4504 38.5904C71.7738 38.2048 71.0088 38.0014 70.23 38H63.15L64.46 32C64.5343 31.6359 64.5265 31.2598 64.4372 30.8991C64.3479 30.5384 64.1793 30.2022 63.9437 29.9148C63.7081 29.6275 63.4113 29.3962 63.0751 29.238C62.7389 29.0798 62.3716 28.9985 62 29H27.11C26.5359 29.0041 25.9805 29.2048 25.5365 29.5687C25.0925 29.9327 24.7866 30.4379 24.67 31L24.14 33.42C24.1256 33.4857 24.1242 33.5535 24.136 33.6197C24.1477 33.6859 24.1724 33.7491 24.2087 33.8058C24.2449 33.8624 24.2919 33.9114 24.347 33.9499C24.4022 33.9883 24.4643 34.0156 24.53 34.03C24.5957 34.0445 24.6635 34.0458 24.7297 34.0341C24.7959 34.0223 24.8591 33.9976 24.9158 33.9614C24.9724 33.9251 25.0214 33.8781 25.0598 33.823C25.0983 33.7679 25.1256 33.7057 25.14 33.64L25.67 31.21C25.7394 30.876 25.9192 30.575 26.1804 30.3555C26.4416 30.1361 26.769 30.0108 27.11 30H62C62.2237 30.0008 62.4444 30.0517 62.6459 30.1488C62.8474 30.2459 63.0246 30.3869 63.1646 30.5614C63.3046 30.7359 63.4037 30.9395 63.4548 31.1573C63.506 31.375 63.5077 31.6015 63.46 31.82L62.06 38.23C62.0284 38.2794 62.0048 38.3334 61.99 38.39L57.1 61H34C33.9694 60.6858 33.9125 60.3747 33.83 60.07V59.96C33.7487 59.6742 33.6416 59.3964 33.51 59.13L33.39 59C33.2544 58.7428 33.1007 58.4955 32.93 58.26L32.84 58.15C32.6655 57.9204 32.4714 57.7062 32.26 57.51L32.16 57.42C31.9462 57.2232 31.7153 57.0458 31.47 56.89L31.36 56.82C31.1037 56.667 30.8362 56.5333 30.56 56.42H30.46C30.1714 56.3078 29.8736 56.2208 29.57 56.16H29.5C28.84 56.0267 28.16 56.0267 27.5 56.16H27.43C27.1264 56.2208 26.8286 56.3078 26.54 56.42H26.44C26.1638 56.5333 25.8963 56.667 25.64 56.82L25.53 56.89C25.2847 57.0458 25.0538 57.2232 24.84 57.42L24.74 57.51C24.5286 57.7062 24.3345 57.9204 24.16 58.15L24.07 58.26C23.8993 58.4955 23.7456 58.7428 23.61 59L23.55 59.12C23.4184 59.3864 23.3113 59.6642 23.23 59.95V60.06C23.1266 60.3662 23.0496 60.6807 23 61H19.19L21 55.66C21.0305 55.5963 21.0472 55.5268 21.0489 55.4562C21.0506 55.3856 21.0374 55.3154 21.01 55.2502C20.9826 55.1851 20.9417 55.1265 20.8901 55.0783C20.8384 55.0301 20.7771 54.9935 20.7102 54.9707C20.6433 54.9479 20.5724 54.9396 20.502 54.9462C20.4317 54.9529 20.3635 54.9744 20.3021 55.0093C20.2407 55.0442 20.1873 55.0917 20.1456 55.1487C20.1039 55.2057 20.0747 55.2709 20.06 55.34L18.81 59H18.44C18.0195 58.9996 17.6095 59.1318 17.2684 59.3778C16.9274 59.6237 16.6725 59.9709 16.54 60.37L16 62H23C23 63.4587 23.5795 64.8577 24.6109 65.8891C25.6424 66.9206 27.0413 67.5 28.5 67.5C29.9587 67.5 31.3576 66.9206 32.3891 65.8891C33.4205 64.8577 34 63.4587 34 62H61C61 63.4587 61.5795 64.8577 62.6109 65.8891C63.6424 66.9206 65.0413 67.5 66.5 67.5C67.9587 67.5 69.3576 66.9206 70.3891 65.8891C71.4205 64.8577 72 63.4587 72 62H78L78.12 61.63C78.2829 61.1326 78.2442 60.5912 78.0124 60.1219C77.7806 59.6526 77.374 59.2929 76.88 59.12L79.34 52.19C79.5681 51.5692 79.6559 50.9056 79.5971 50.2469C79.5383 49.5882 79.3344 48.9506 79 48.38ZM28.5 66C27.61 66 26.74 65.7361 25.9999 65.2416C25.2599 64.7472 24.6831 64.0444 24.3425 63.2221C24.0019 62.3998 23.9128 61.495 24.0865 60.6221C24.2601 59.7492 24.6887 58.9474 25.318 58.318C25.9474 57.6887 26.7492 57.2601 27.6221 57.0865C28.495 56.9129 29.3998 57.002 30.2221 57.3426C31.0443 57.6832 31.7471 58.2599 32.2416 59C32.7361 59.74 33 60.61 33 61.5C32.9974 62.6927 32.5224 63.8357 31.6791 64.6791C30.8357 65.5224 29.6927 65.9974 28.5 66ZM66.5 66C65.61 66 64.74 65.7361 63.9999 65.2416C63.2599 64.7472 62.6831 64.0444 62.3425 63.2221C62.0019 62.3998 61.9128 61.495 62.0865 60.6221C62.2601 59.7492 62.6887 58.9474 63.318 58.318C63.9474 57.6887 64.7492 57.2601 65.6221 57.0865C66.495 56.9129 67.3998 57.002 68.2221 57.3426C69.0443 57.6832 69.7472 58.2599 70.2416 59C70.7361 59.74 71 60.61 71 61.5C70.9974 62.6927 70.5224 63.8357 69.6791 64.6791C68.8357 65.5224 67.6927 65.9974 66.5 66ZM78.4 51.85L75.15 61H72C71.9694 60.6858 71.9126 60.3747 71.83 60.07V59.96C71.747 59.6748 71.6399 59.3972 71.51 59.13L71.39 59C71.2522 58.744 71.0986 58.4969 70.93 58.26L70.84 58.15C70.6655 57.9204 70.4714 57.7062 70.26 57.51L70.16 57.41C69.9436 57.2194 69.7129 57.0456 69.47 56.89L69.36 56.82C69.1058 56.6631 68.8381 56.5292 68.56 56.42H68.46C68.1714 56.3078 67.8736 56.2208 67.57 56.16H67.5C66.8401 56.0253 66.1599 56.0253 65.5 56.16H65.43C65.1264 56.2208 64.8286 56.3078 64.54 56.42H64.44C64.1619 56.5292 63.8942 56.6631 63.64 56.82L63.53 56.89C63.2871 57.0456 63.0564 57.2194 62.84 57.41L62.74 57.51C62.5286 57.7062 62.3345 57.9204 62.16 58.15L62.07 58.26C61.9014 58.4969 61.7478 58.744 61.61 59L61.55 59.12C61.4201 59.3872 61.313 59.6648 61.23 59.95V60.06C61.1266 60.3662 61.0496 60.6807 61 61H58.1L62.91 39H70.21C70.8154 39.0004 71.4103 39.1582 71.9363 39.458C72.4623 39.7578 72.9012 40.1893 73.21 40.71L78.09 48.89C78.356 49.3303 78.5217 49.8238 78.5753 50.3354C78.6289 50.847 78.569 51.3642 78.4 51.85Z" fill="#FF0000"/>
<path d="M71.5102 42.26C71.2916 41.8774 70.9758 41.5593 70.5947 41.338C70.2136 41.1168 69.7808 41.0001 69.3402 41H65.5002C65.392 41 65.2867 41.0351 65.2002 41.1C65.1136 41.1649 65.0504 41.2561 65.0202 41.36L63.0202 48.36C63.0006 48.4347 62.9977 48.5128 63.0115 48.5889C63.0253 48.6649 63.0556 48.7369 63.1002 48.8C63.1462 48.8627 63.2065 48.9135 63.276 48.9483C63.3456 48.9831 63.4224 49.0008 63.5002 49H71.0502C71.49 49.0019 71.9226 48.8872 72.3037 48.6677C72.6849 48.4481 73.0011 48.1315 73.2202 47.75C73.4407 47.3721 73.5569 46.9425 73.5569 46.505C73.5569 46.0675 73.4407 45.6379 73.2202 45.26L71.5102 42.26ZM72.3502 47.26C72.2192 47.4889 72.0299 47.6789 71.8015 47.8106C71.5731 47.9424 71.3138 48.0112 71.0502 48.01H64.1602L65.8802 42.01H69.3402C69.605 42.0088 69.8654 42.0786 70.094 42.2123C70.3227 42.346 70.5113 42.5386 70.6402 42.77L72.3602 45.77C72.4866 45.9965 72.5522 46.2519 72.5504 46.5113C72.5487 46.7707 72.4797 47.0252 72.3502 47.25V47.26Z" fill="#FF0000"/>
<path d="M28.5 59C28.0055 59 27.5222 59.1466 27.1111 59.4213C26.7 59.696 26.3795 60.0865 26.1903 60.5433C26.0011 61.0001 25.9516 61.5028 26.048 61.9877C26.1445 62.4727 26.3826 62.9181 26.7322 63.2678C27.0819 63.6174 27.5273 63.8555 28.0123 63.952C28.4972 64.0484 28.9999 63.9989 29.4567 63.8097C29.9135 63.6205 30.304 63.3001 30.5787 62.8889C30.8534 62.4778 31 61.9945 31 61.5C31 60.837 30.7366 60.2011 30.2678 59.7322C29.7989 59.2634 29.163 59 28.5 59ZM28.5 63C28.2033 63 27.9133 62.912 27.6666 62.7472C27.42 62.5824 27.2277 62.3481 27.1142 62.074C27.0007 61.7999 26.9709 61.4983 27.0288 61.2074C27.0867 60.9164 27.2296 60.6491 27.4393 60.4393C27.6491 60.2296 27.9164 60.0867 28.2074 60.0288C28.4983 59.9709 28.7999 60.0007 29.074 60.1142C29.3481 60.2277 29.5824 60.42 29.7472 60.6666C29.912 60.9133 30 61.2033 30 61.5C30 61.8978 29.842 62.2794 29.5607 62.5607C29.2794 62.842 28.8978 63 28.5 63Z" fill="#FF0000"/>
<path d="M66.5 59C66.0055 59 65.5222 59.1466 65.1111 59.4213C64.7 59.696 64.3795 60.0865 64.1903 60.5433C64.0011 61.0001 63.9516 61.5028 64.048 61.9877C64.1445 62.4727 64.3826 62.9181 64.7322 63.2678C65.0819 63.6174 65.5273 63.8555 66.0123 63.952C66.4972 64.0484 66.9999 63.9989 67.4567 63.8097C67.9135 63.6205 68.304 63.3001 68.5787 62.8889C68.8534 62.4778 69 61.9945 69 61.5C69 60.837 68.7366 60.2011 68.2678 59.7322C67.7989 59.2634 67.163 59 66.5 59ZM66.5 63C66.2033 63 65.9133 62.912 65.6666 62.7472C65.42 62.5824 65.2277 62.3481 65.1142 62.074C65.0007 61.7999 64.9709 61.4983 65.0288 61.2074C65.0867 60.9164 65.2296 60.6491 65.4393 60.4393C65.6491 60.2296 65.9164 60.0867 66.2074 60.0288C66.4983 59.9709 66.7999 60.0007 67.074 60.1142C67.3481 60.2277 67.5824 60.42 67.7472 60.6666C67.912 60.9133 68 61.2033 68 61.5C68 61.8978 67.842 62.2794 67.5607 62.5607C67.2794 62.842 66.8978 63 66.5 63Z" fill="#FF0000"/>
<path d="M19 38H41C41.2652 38 41.5196 37.8946 41.7071 37.7071C41.8946 37.5196 42 37.2652 42 37C42 36.7348 41.8946 36.4804 41.7071 36.2929C41.5196 36.1054 41.2652 36 41 36H19C18.7348 36 18.4804 36.1054 18.2929 36.2929C18.1054 36.4804 18 36.7348 18 37C18 37.2652 18.1054 37.5196 18.2929 37.7071C18.4804 37.8946 18.7348 38 19 38Z" fill="#FF0000"/>
<path d="M38 47C38 46.7348 37.8946 46.4804 37.7071 46.2929C37.5196 46.1054 37.2652 46 37 46H20C19.7348 46 19.4804 46.1054 19.2929 46.2929C19.1054 46.4804 19 46.7348 19 47C19 47.2652 19.1054 47.5196 19.2929 47.7071C19.4804 47.8946 19.7348 48 20 48H37C37.2652 48 37.5196 47.8946 37.7071 47.7071C37.8946 47.5196 38 47.2652 38 47Z" fill="#FF0000"/>
<path d="M40 42C40 41.7348 39.8946 41.4804 39.7071 41.2929C39.5196 41.1054 39.2652 41 39 41H21C20.7348 41 20.4804 41.1054 20.2929 41.2929C20.1054 41.4804 20 41.7348 20 42C20 42.2652 20.1054 42.5196 20.2929 42.7071C20.4804 42.8946 20.7348 43 21 43H39C39.2652 43 39.5196 42.8946 39.7071 42.7071C39.8946 42.5196 40 42.2652 40 42Z" fill="#FF0000"/>
<path d="M18 43C18.5523 43 19 42.5523 19 42C19 41.4477 18.5523 41 18 41C17.4477 41 17 41.4477 17 42C17 42.5523 17.4477 43 18 43Z" fill="#FF0000"/>
<path d="M22 51C21.7348 51 21.4804 51.1054 21.2929 51.2929C21.1054 51.4804 21 51.7348 21 52C21 52.2652 21.1054 52.5196 21.2929 52.7071C21.4804 52.8946 21.7348 53 22 53H35C35.2652 53 35.5196 52.8946 35.7071 52.7071C35.8946 52.5196 36 52.2652 36 52C36 51.7348 35.8946 51.4804 35.7071 51.2929C35.5196 51.1054 35.2652 51 35 51H22Z" fill="#FF0000"/>
<path d="M19 53C19.5523 53 20 52.5523 20 52C20 51.4477 19.5523 51 19 51C18.4477 51 18 51.4477 18 52C18 52.5523 18.4477 53 19 53Z" fill="#FF0000"/>
</svg>
