<svg width="62" height="62" viewBox="0 0 62 62" fill="none" xmlns="http://www.w3.org/2000/svg">
<path d="M42.5946 3.72832C41.6331 3.74285 40.5714 3.95452 39.25 4.30521C35.4583 5.30448 13.6474 11.3403 13.6474 11.3403C13.6086 11.35 13.5704 11.364 13.5321 11.3785C10.0771 12.681 7.90029 13.906 6.57359 15.6841C5.25705 17.4526 4.96401 19.5766 4.95916 22.1041C4.95916 22.1186 4.95916 22.1283 4.95916 22.1423V22.9115C4.94463 23.0651 4.9209 23.2191 4.9209 23.3726V49.6674C4.9209 53.4683 8.0393 56.5867 11.8402 56.5867H49.6679C53.4688 56.5867 56.5872 53.4683 56.5872 49.6674V23.1803C56.5872 19.2593 53.0794 15.9917 49.2063 15.9917H12.3018C10.9228 15.9917 9.68279 16.3855 8.64962 17.0297C9.54329 15.9292 11.2304 14.8912 14.3008 13.7234C14.3342 13.7094 14.3439 13.6997 14.3778 13.6851C14.5169 13.6469 36.1984 7.65467 39.8652 6.68882C41.0853 6.36671 41.9984 6.19863 42.6329 6.18895C43.2669 6.17926 43.5648 6.27517 43.7092 6.38124C43.8535 6.48684 43.9736 6.69318 44.0938 7.18821C44.2139 7.68324 44.2861 8.4379 44.2861 9.41779V13.5316H46.7462V9.41779C46.7462 8.3512 46.6789 7.44784 46.4769 6.61181C46.2754 5.77577 45.8811 4.95379 45.17 4.42049C44.459 3.8872 43.5556 3.71427 42.5946 3.72832ZM12.3018 18.4519H49.2063C51.6045 18.4519 54.1271 20.8355 54.1271 23.1803V49.6674C54.1271 52.1372 52.1378 54.1266 49.6679 54.1266H11.8402C9.36552 54.1266 7.38104 52.1421 7.38104 49.6674V25.1794L7.4193 23.1421C7.49148 22.306 7.91918 21.114 8.72663 20.1821C9.60577 19.1629 10.8075 18.4519 12.3018 18.4519ZM47.3614 33.2137C45.6602 33.2137 44.2861 34.5883 44.2861 36.2895C44.2861 37.9906 45.6602 39.3648 47.3614 39.3648C49.0576 39.3648 50.4366 37.9906 50.4366 36.2895C50.4366 34.5883 49.0576 33.2137 47.3614 33.2137Z" fill="#FF0000"/>
</svg>
