<svg width="62" height="62" viewBox="0 0 62 62" fill="none" xmlns="http://www.w3.org/2000/svg">
<g clip-path="url(#clip0)">
<path d="M61.0178 10.9464C60.8928 10.5812 60.5228 10.2111 60.1532 10.2111C59.788 10.0862 59.2929 10.2111 59.0479 10.5812L52.5267 17.0975C52.1571 17.4676 51.4218 17.4676 51.0518 17.0975L44.5311 10.5812C44.1611 10.2111 44.1611 9.4715 44.5311 9.10144L51.0518 2.46017C51.2969 2.21508 51.4218 1.72053 51.4218 1.35531C51.2969 0.985251 51.0518 0.615188 50.6817 0.49022C45.761 -1.23028 37.8899 2.3352 34.6896 5.53595C31.4942 8.73622 31.1241 13.162 33.7044 17.9621L33.4593 18.2072L30.7541 15.377C28.4189 12.7919 25.2181 11.3165 21.6526 11.1964C18.0823 11.0714 14.8869 12.4267 12.4268 14.8868L3.81554 23.498C-1.10523 28.4188 -1.10523 36.4149 3.81554 41.3351L6.15071 43.6708L2.46025 47.1162C1.47552 48.1014 0.370176 49.8214 0.000113469 52.0369C-0.124855 53.8819 0.000113513 56.4622 2.46025 59.0478C4.43069 61.0177 6.52077 61.5079 8.24127 61.5079C8.61133 61.5079 9.10152 61.5079 9.47158 61.3829C11.6866 61.0177 13.4071 59.908 14.3919 58.9228L18.5773 54.6172C18.8224 54.6172 19.0675 54.7422 19.4376 54.7422C21.4032 54.7422 23.2482 53.7569 24.2334 52.157C24.8486 52.4065 25.5882 52.5266 26.2033 52.5266C29.0336 52.5266 31.3692 50.5615 31.8594 47.8514C32.2295 47.9764 32.5995 47.9764 32.9691 47.9764C35.7998 47.9764 38.135 46.006 38.6251 43.3007C38.9952 43.4257 39.3653 43.4257 39.7353 43.4257C42.9308 43.4257 45.5159 40.8401 45.5159 37.6447C45.5159 35.9198 44.6556 34.1993 43.3008 33.0891L40.8402 30.629L43.5459 27.9238C48.3466 30.5089 52.6517 30.1388 55.9726 26.9385C59.1728 23.6182 62.7383 15.7471 61.0178 10.9464ZM12.6718 57.2023C12.0567 57.8175 10.7014 58.6777 9.10152 58.9228C7.25605 59.1727 5.661 58.5576 4.30572 57.2023C2.83032 55.7274 2.33529 54.127 2.58522 52.4065C2.83032 50.8066 3.69057 49.5763 4.30572 48.8362L7.87121 45.3908L15.007 52.5266C15.3771 52.8967 15.7471 53.2667 16.2373 53.6368L12.6718 57.2023ZM41.8254 34.9346C42.6857 35.5498 43.1807 36.535 43.1807 37.5197C43.1807 39.3652 41.7004 40.8401 39.8555 40.8401C39.2403 40.8401 38.7501 40.72 38.135 40.3504L35.9199 38.9951L36.29 41.5802C36.29 41.7004 36.29 41.8253 36.29 42.0704C36.29 43.9159 34.8146 45.3908 32.9691 45.3908C32.3544 45.3908 31.8594 45.2707 31.2442 44.9006L29.0336 43.5458L29.3988 46.1309C29.3988 46.2559 29.3988 46.376 29.3988 46.6211C29.3988 48.4666 27.9238 49.9464 26.0784 49.9464C25.4632 49.9464 24.7284 49.6964 24.2334 49.3312L22.883 48.4666L22.3879 49.9464C21.8977 51.2968 20.6679 52.157 19.3126 52.157C18.3274 52.157 17.347 51.6669 16.7324 50.9267L5.41107 39.6103C1.47552 35.6747 1.47552 29.1536 5.41107 25.218L14.0218 16.6073C15.9922 14.6369 18.6975 13.532 21.5277 13.6565C24.3584 13.7766 26.9386 14.8868 28.9091 17.0975L31.7393 20.0527L30.9991 20.788L30.7541 20.4227C30.2639 19.9277 29.5237 19.9277 29.0336 20.4227C28.539 20.9129 28.539 21.6526 29.0336 22.1427L41.7004 34.8145L41.8254 34.9346ZM54.1271 25.0936C50.8067 28.4188 46.7462 27.0635 43.916 25.218C43.4258 24.9734 42.8106 24.9734 42.4406 25.4631L39.1202 28.784L32.7245 22.3878L36.0449 19.0675C36.4149 18.6974 36.5351 18.0822 36.29 17.592C34.5695 14.6369 33.2142 10.5812 36.4149 7.38094C38.7501 5.04577 43.7958 2.58514 47.6064 2.46017L42.8106 7.25597C41.4553 8.61125 41.4553 10.8263 42.8106 12.3017L49.3313 18.8224C50.6817 20.1728 52.8968 20.1728 54.3722 18.8224L59.1728 14.0217C59.0479 17.7122 56.4623 22.7579 54.1271 25.0936Z" fill="#FF0000"/>
</g>
<defs>
<clipPath id="clip0">
<rect width="62" height="62" fill="white"/>
</clipPath>
</defs>
</svg>
